<svg xmlns="http://www.w3.org/2000/svg" width="75" viewBox="0 0 75 75" height="75" version="1.0"><defs><clipPath id="a"><path d="M 4.890625 52 L 70.140625 52 L 70.140625 58 L 4.890625 58 Z M 4.890625 52"/></clipPath><clipPath id="b"><path d="M 4.890625 48 L 70.140625 48 L 70.140625 56 L 4.890625 56 Z M 4.890625 48"/></clipPath><clipPath id="c"><path d="M 4.890625 7.5 L 70.140625 7.5 L 70.140625 49 L 4.890625 49 Z M 4.890625 7.5"/></clipPath><clipPath id="d"><path d="M 26 66 L 49 66 L 49 67.5 L 26 67.5 Z M 26 66"/></clipPath></defs><path fill="#E6E9ED" d="M 8 10.785156 L 10.070312 10.785156 L 10.070312 44.957031 L 8 44.957031 Z M 8 10.785156"/><path fill="#434A54" d="M 10.070312 10.796875 L 67.035156 10.796875 L 67.035156 44.945312 L 10.070312 44.945312 Z M 10.070312 10.796875"/><path fill="#CCD1D9" d="M 39.070312 51.675781 C 39.070312 51.878906 39.03125 52.078125 38.953125 52.269531 C 38.871094 52.457031 38.761719 52.625 38.613281 52.773438 C 38.46875 52.917969 38.300781 53.03125 38.109375 53.109375 C 37.921875 53.1875 37.722656 53.226562 37.515625 53.226562 C 37.308594 53.226562 37.113281 53.1875 36.921875 53.109375 C 36.730469 53.03125 36.5625 52.917969 36.417969 52.773438 C 36.273438 52.625 36.160156 52.457031 36.082031 52.269531 C 36.003906 52.078125 35.960938 51.878906 35.960938 51.675781 C 35.960938 51.46875 36.003906 51.269531 36.082031 51.082031 C 36.160156 50.890625 36.273438 50.722656 36.417969 50.578125 C 36.5625 50.429688 36.730469 50.320312 36.921875 50.238281 C 37.113281 50.160156 37.308594 50.121094 37.515625 50.121094 C 37.722656 50.121094 37.921875 50.160156 38.109375 50.238281 C 38.300781 50.320312 38.46875 50.429688 38.613281 50.578125 C 38.761719 50.722656 38.871094 50.890625 38.953125 51.082031 C 39.03125 51.269531 39.070312 51.46875 39.070312 51.675781 Z M 39.070312 51.675781"/><g clip-path="url(#a)"><path fill="#CCD1D9" d="M 70.140625 52.210938 L 70.140625 54.261719 C 70.140625 56.011719 68.785156 57.367188 67.035156 57.367188 C 66.296875 57.367188 56.023438 57.367188 44.238281 57.367188 C 39.824219 57.367188 35.207031 57.367188 30.792969 57.367188 C 19.007812 57.367188 8.734375 57.367188 8 57.367188 C 6.25 57.367188 4.890625 56.011719 4.890625 54.261719 L 4.890625 52.210938 C 4.890625 53.921875 6.289062 55.316406 8 55.316406 L 67.035156 55.316406 C 68.742188 55.316406 70.140625 53.921875 70.140625 52.210938 Z M 70.140625 52.210938"/></g><path fill="#CCD1D9" d="M 44.238281 57.367188 L 46.308594 66.683594 L 28.722656 66.683594 L 30.792969 57.367188 C 35.207031 57.367188 39.824219 57.367188 44.238281 57.367188 Z M 44.238281 57.367188"/><g clip-path="url(#b)"><path fill="#E6E9ED" d="M 37.515625 48.050781 L 4.890625 48.050781 L 4.890625 52.210938 C 4.890625 53.921875 6.289062 55.316406 8 55.316406 L 67.035156 55.316406 C 68.742188 55.316406 70.140625 53.921875 70.140625 52.210938 L 70.140625 48.050781 Z M 37.515625 53.226562 C 36.65625 53.226562 35.960938 52.535156 35.960938 51.675781 C 35.960938 50.816406 36.65625 50.121094 37.515625 50.121094 C 38.375 50.121094 39.070312 50.816406 39.070312 51.675781 C 39.070312 52.535156 38.375 53.226562 37.515625 53.226562 Z M 37.515625 53.226562"/></g><g clip-path="url(#c)"><path fill="#656D78" d="M 70.140625 10.804688 L 70.140625 48.050781 L 4.890625 48.050781 L 4.890625 10.804688 C 4.890625 9.097656 6.289062 7.699219 8 7.699219 L 67.035156 7.699219 C 68.742188 7.699219 70.140625 9.097656 70.140625 10.804688 Z M 67.035156 44.945312 L 67.035156 10.785156 L 8 10.785156 L 8 44.945312 Z M 67.035156 44.945312"/></g><path fill="#AAB2BD" d="M 44.46875 58.402344 L 44.238281 57.367188 C 39.824219 57.367188 35.207031 57.367188 30.792969 57.367188 L 30.5625 58.402344 Z M 44.46875 58.402344"/><g clip-path="url(#d)"><path fill="#E6E9ED" d="M 47.875 67.195312 L 27.160156 67.195312 C 26.875 67.195312 26.640625 66.964844 26.640625 66.679688 C 26.640625 66.390625 26.875 66.160156 27.160156 66.160156 L 47.875 66.160156 C 48.160156 66.160156 48.390625 66.390625 48.390625 66.679688 C 48.390625 66.964844 48.160156 67.195312 47.875 67.195312 Z M 47.875 67.195312"/></g><path fill="#FFCE54" d="M 17.320312 14.417969 L 13.175781 14.417969 C 12.890625 14.417969 12.660156 14.1875 12.660156 13.902344 C 12.660156 13.617188 12.890625 13.382812 13.175781 13.382812 L 17.320312 13.382812 C 17.605469 13.382812 17.835938 13.617188 17.835938 13.902344 C 17.835938 14.1875 17.605469 14.417969 17.320312 14.417969 Z M 17.320312 14.417969"/><path fill="#AC92EC" d="M 35.960938 17.523438 L 21.460938 17.523438 C 21.175781 17.523438 20.945312 17.292969 20.945312 17.007812 C 20.945312 16.722656 21.175781 16.488281 21.460938 16.488281 L 35.960938 16.488281 C 36.25 16.488281 36.480469 16.722656 36.480469 17.007812 C 36.480469 17.292969 36.25 17.523438 35.960938 17.523438 Z M 35.960938 17.523438"/><path fill="#AC92EC" d="M 19.390625 17.523438 L 14.210938 17.523438 C 13.925781 17.523438 13.695312 17.292969 13.695312 17.007812 C 13.695312 16.722656 13.925781 16.488281 14.210938 16.488281 L 19.390625 16.488281 C 19.675781 16.488281 19.910156 16.722656 19.910156 17.007812 C 19.910156 17.292969 19.675781 17.523438 19.390625 17.523438 Z M 19.390625 17.523438"/><path fill="#5D9CEC" d="M 48.390625 20.628906 L 34.925781 20.628906 C 34.640625 20.628906 34.410156 20.398438 34.410156 20.113281 C 34.410156 19.828125 34.640625 19.59375 34.925781 19.59375 L 48.390625 19.59375 C 48.675781 19.59375 48.910156 19.828125 48.910156 20.113281 C 48.910156 20.398438 48.675781 20.628906 48.390625 20.628906 Z M 48.390625 20.628906"/><path fill="#5D9CEC" d="M 54.605469 20.628906 L 50.460938 20.628906 C 50.175781 20.628906 49.945312 20.398438 49.945312 20.113281 C 49.945312 19.828125 50.175781 19.59375 50.460938 19.59375 L 54.605469 19.59375 C 54.890625 19.59375 55.125 19.828125 55.125 20.113281 C 55.125 20.398438 54.890625 20.628906 54.605469 20.628906 Z M 54.605469 20.628906"/><path fill="#5D9CEC" d="M 32.855469 20.628906 L 15.25 20.628906 C 14.960938 20.628906 14.730469 20.398438 14.730469 20.113281 C 14.730469 19.828125 14.960938 19.59375 15.25 19.59375 L 32.855469 19.59375 C 33.140625 19.59375 33.375 19.828125 33.375 20.113281 C 33.375 20.398438 33.140625 20.628906 32.855469 20.628906 Z M 32.855469 20.628906"/><path fill="#ED5565" d="M 20.429688 26.839844 L 17.320312 26.839844 C 17.035156 26.839844 16.804688 26.609375 16.804688 26.324219 C 16.804688 26.039062 17.035156 25.804688 17.320312 25.804688 L 20.429688 25.804688 C 20.714844 25.804688 20.945312 26.039062 20.945312 26.324219 C 20.945312 26.609375 20.714844 26.839844 20.429688 26.839844 Z M 20.429688 26.839844"/><path fill="#ED5565" d="M 37.875 26.839844 L 22.5 26.839844 C 22.214844 26.839844 21.984375 26.609375 21.984375 26.324219 C 21.984375 26.039062 22.214844 25.804688 22.5 25.804688 L 37.875 25.804688 C 38.160156 25.804688 38.390625 26.039062 38.390625 26.324219 C 38.390625 26.609375 38.160156 26.839844 37.875 26.839844 Z M 37.875 26.839844"/><path fill="#A0D468" d="M 40.105469 23.734375 L 16.285156 23.734375 C 16 23.734375 15.765625 23.503906 15.765625 23.21875 C 15.765625 22.933594 16 22.699219 16.285156 22.699219 L 40.105469 22.699219 C 40.390625 22.699219 40.625 22.933594 40.625 23.21875 C 40.625 23.503906 40.390625 23.734375 40.105469 23.734375 Z M 40.105469 23.734375"/><path fill="#4FC1E9" d="M 41.144531 29.945312 L 31.820312 29.945312 C 31.535156 29.945312 31.304688 29.714844 31.304688 29.429688 C 31.304688 29.144531 31.535156 28.910156 31.820312 28.910156 L 41.144531 28.910156 C 41.429688 28.910156 41.660156 29.144531 41.660156 29.429688 C 41.660156 29.714844 41.429688 29.945312 41.144531 29.945312 Z M 41.144531 29.945312"/><path fill="#A0D468" d="M 33.894531 33.050781 L 16.285156 33.050781 C 16 33.050781 15.769531 32.820312 15.769531 32.535156 C 15.769531 32.25 16 32.015625 16.285156 32.015625 L 33.894531 32.015625 C 34.179688 32.015625 34.410156 32.25 34.410156 32.535156 C 34.410156 32.820312 34.179688 33.050781 33.894531 33.050781 Z M 33.894531 33.050781"/><path fill="#AC92EC" d="M 22.5 39.261719 L 14.210938 39.261719 C 13.925781 39.261719 13.695312 39.03125 13.695312 38.746094 C 13.695312 38.460938 13.925781 38.226562 14.210938 38.226562 L 22.5 38.226562 C 22.785156 38.226562 23.015625 38.460938 23.015625 38.746094 C 23.015625 39.03125 22.785156 39.261719 22.5 39.261719 Z M 22.5 39.261719"/><path fill="#5D9CEC" d="M 43.210938 36.15625 L 28.710938 36.15625 C 28.425781 36.15625 28.195312 35.925781 28.195312 35.640625 C 28.195312 35.355469 28.425781 35.121094 28.710938 35.121094 L 43.210938 35.121094 C 43.5 35.121094 43.730469 35.355469 43.730469 35.640625 C 43.730469 35.925781 43.5 36.15625 43.210938 36.15625 Z M 43.210938 36.15625"/><path fill="#5D9CEC" d="M 46.320312 36.15625 L 45.285156 36.15625 C 45 36.15625 44.765625 35.925781 44.765625 35.640625 C 44.765625 35.355469 45 35.121094 45.285156 35.121094 L 46.320312 35.121094 C 46.605469 35.121094 46.835938 35.355469 46.835938 35.640625 C 46.835938 35.925781 46.605469 36.15625 46.320312 36.15625 Z M 46.320312 36.15625"/><path fill="#5D9CEC" d="M 26.640625 36.15625 L 15.25 36.15625 C 14.960938 36.15625 14.730469 35.925781 14.730469 35.640625 C 14.730469 35.355469 14.960938 35.121094 15.25 35.121094 L 26.640625 35.121094 C 26.925781 35.121094 27.160156 35.355469 27.160156 35.640625 C 27.160156 35.925781 26.925781 36.15625 26.640625 36.15625 Z M 26.640625 36.15625"/><path fill="#FFCE54" d="M 17.320312 42.367188 L 13.175781 42.367188 C 12.890625 42.367188 12.660156 42.136719 12.660156 41.851562 C 12.660156 41.566406 12.890625 41.332031 13.175781 41.332031 L 17.320312 41.332031 C 17.605469 41.332031 17.835938 41.566406 17.835938 41.851562 C 17.835938 42.136719 17.605469 42.367188 17.320312 42.367188 Z M 17.320312 42.367188"/><path fill="#A0D468" d="M 42.179688 33.050781 L 35.964844 33.050781 C 35.679688 33.050781 35.445312 32.820312 35.445312 32.535156 C 35.445312 32.25 35.679688 32.015625 35.964844 32.015625 L 42.179688 32.015625 C 42.464844 32.015625 42.695312 32.25 42.695312 32.535156 C 42.695312 32.820312 42.464844 33.050781 42.179688 33.050781 Z M 42.179688 33.050781"/><path fill="#4FC1E9" d="M 50.464844 29.945312 L 43.214844 29.945312 C 42.929688 29.945312 42.695312 29.714844 42.695312 29.429688 C 42.695312 29.144531 42.929688 28.910156 43.214844 28.910156 L 50.464844 28.910156 C 50.75 28.910156 50.984375 29.144531 50.984375 29.429688 C 50.984375 29.714844 50.75 29.945312 50.464844 29.945312 Z M 50.464844 29.945312"/><path fill="#4FC1E9" d="M 29.75 29.945312 L 17.320312 29.945312 C 17.035156 29.945312 16.804688 29.714844 16.804688 29.429688 C 16.804688 29.144531 17.035156 28.910156 17.320312 28.910156 L 29.75 28.910156 C 30.035156 28.910156 30.269531 29.144531 30.269531 29.429688 C 30.269531 29.714844 30.035156 29.945312 29.75 29.945312 Z M 29.75 29.945312"/><path fill="#CCD1D9" d="M 8.515625 29.421875 C 8.515625 29.136719 8.285156 28.90625 8 28.90625 L 8 29.941406 C 8.285156 29.941406 8.515625 29.710938 8.515625 29.421875 Z M 8.515625 29.421875"/><path fill="#CCD1D9" d="M 8.515625 32.527344 C 8.515625 32.242188 8.285156 32.011719 8 32.011719 L 8 33.046875 C 8.285156 33.046875 8.515625 32.816406 8.515625 32.527344 Z M 8.515625 32.527344"/><path fill="#CCD1D9" d="M 8.515625 35.632812 C 8.515625 35.347656 8.285156 35.117188 8 35.117188 L 8 36.152344 C 8.285156 36.152344 8.515625 35.921875 8.515625 35.632812 Z M 8.515625 35.632812"/><path fill="#CCD1D9" d="M 8.515625 38.738281 C 8.515625 38.453125 8.285156 38.222656 8 38.222656 L 8 39.257812 C 8.285156 39.257812 8.515625 39.027344 8.515625 38.738281 Z M 8.515625 38.738281"/><path fill="#CCD1D9" d="M 8.515625 41.84375 C 8.515625 41.558594 8.285156 41.328125 8 41.328125 L 8 42.363281 C 8.285156 42.363281 8.515625 42.132812 8.515625 41.84375 Z M 8.515625 41.84375"/><path fill="#CCD1D9" d="M 8.515625 26.316406 C 8.515625 26.03125 8.285156 25.800781 8 25.800781 L 8 26.835938 C 8.285156 26.835938 8.515625 26.605469 8.515625 26.316406 Z M 8.515625 26.316406"/><path fill="#CCD1D9" d="M 8.515625 23.210938 C 8.515625 22.925781 8.285156 22.695312 8 22.695312 L 8 23.730469 C 8.285156 23.730469 8.515625 23.5 8.515625 23.210938 Z M 8.515625 23.210938"/><path fill="#CCD1D9" d="M 8.515625 20.105469 C 8.515625 19.820312 8.285156 19.589844 8 19.589844 L 8 20.625 C 8.285156 20.625 8.515625 20.394531 8.515625 20.105469 Z M 8.515625 20.105469"/><path fill="#CCD1D9" d="M 8.515625 17 C 8.515625 16.714844 8.285156 16.484375 8 16.484375 L 8 17.519531 C 8.285156 17.519531 8.515625 17.289062 8.515625 17 Z M 8.515625 17"/><path fill="#CCD1D9" d="M 8.515625 13.894531 C 8.515625 13.609375 8.285156 13.378906 8 13.378906 L 8 14.414062 C 8.285156 14.414062 8.515625 14.183594 8.515625 13.894531 Z M 8.515625 13.894531"/></svg>