<svg xmlns="http://www.w3.org/2000/svg" width="224.88" viewBox="0 0 224.88 150" height="150" version="1.0"><defs><clipPath id="a"><path d="M 38.953125 8.730469 L 183.886719 8.730469 L 183.886719 142.734375 L 38.953125 142.734375 Z M 38.953125 8.730469"/></clipPath><clipPath id="b"><path d="M 51.085938 8.730469 L 182.640625 8.730469 L 182.640625 142.734375 L 51.085938 142.734375 Z M 51.085938 8.730469"/></clipPath><clipPath id="c"><path d="M 39 7.117188 L 180 7.117188 L 180 139 L 39 139 Z M 39 7.117188"/></clipPath><clipPath id="d"><path d="M 49.527344 9.042969 L 183.886719 9.042969 L 183.886719 142.734375 L 49.527344 142.734375 Z M 49.527344 9.042969"/></clipPath><clipPath id="e"><path d="M 66.011719 43 L 185.875 43 L 185.875 138.695312 L 66.011719 138.695312 Z M 66.011719 43"/></clipPath></defs><g clip-path="url(#a)"><path fill="#F6836B" d="M 167.058594 113.511719 L 161.667969 105.410156 L 159.585938 105.410156 C 157.476562 108.222656 155.25 110.9375 152.925781 113.511719 Z M 60.828125 22.347656 C 60.828125 22.46875 60.839844 22.59375 60.855469 22.710938 C 62.195312 21.800781 63.582031 20.941406 65.011719 20.125 C 64.582031 19.835938 64.066406 19.664062 63.507812 19.664062 C 62.03125 19.664062 60.828125 20.867188 60.828125 22.347656 Z M 183.820312 118.359375 L 177.570312 118.359375 L 180.398438 142.734375 L 175.859375 142.734375 L 173.027344 118.359375 L 157.015625 118.359375 L 154.183594 142.734375 L 149.644531 142.734375 L 152.476562 118.359375 L 148.285156 118.359375 C 136.171875 130.214844 122 138.203125 108.101562 138.203125 C 101.894531 138.203125 95.742188 136.992188 89.816406 134.816406 L 90.734375 142.734375 L 86.191406 142.734375 L 85.042969 132.828125 C 78.636719 129.851562 72.566406 125.761719 67.058594 120.867188 L 64.519531 142.734375 L 59.976562 142.734375 L 62.808594 118.359375 L 56.902344 118.359375 L 56.902344 113.511719 L 59.730469 113.511719 C 47.15625 99.292969 38.953125 80.8125 38.953125 63.289062 C 38.953125 46.941406 46.085938 34.277344 57.25 25.371094 C 57.054688 24.972656 56.898438 24.558594 56.785156 24.128906 L 54.746094 23.679688 L 54.746094 21.011719 L 56.785156 20.5625 C 56.945312 19.964844 57.183594 19.390625 57.492188 18.855469 L 56.367188 17.09375 L 58.253906 15.207031 L 60.015625 16.332031 C 60.554688 16.019531 61.125 15.785156 61.726562 15.625 L 62.175781 13.582031 L 64.84375 13.582031 L 65.292969 15.625 C 65.890625 15.785156 66.464844 16.019531 67 16.332031 L 68.761719 15.207031 L 70.648438 17.09375 L 70.511719 17.308594 C 71.527344 16.84375 72.558594 16.402344 73.605469 15.980469 L 73.605469 13.582031 L 80.421875 13.582031 C 85.90625 11.925781 91.695312 10.789062 97.632812 10.179688 C 97.625 10.125 97.617188 10.078125 97.617188 10.023438 C 97.617188 9.402344 98.121094 8.898438 98.742188 8.898438 C 99.34375 8.898438 99.832031 9.375 99.859375 9.972656 C 102.585938 9.75 105.339844 9.640625 108.101562 9.640625 C 143.613281 9.640625 180.964844 15.003906 180.964844 50.507812 C 180.964844 66.894531 173.007812 86.835938 160.949219 103.558594 L 170.371094 103.558594 L 176.992188 113.511719 L 183.820312 113.511719 Z M 55.515625 11.148438 C 56.136719 11.148438 56.640625 10.644531 56.640625 10.023438 C 56.640625 9.402344 56.136719 8.898438 55.515625 8.898438 C 54.894531 8.898438 54.390625 9.402344 54.390625 10.023438 C 54.390625 10.644531 54.894531 11.148438 55.515625 11.148438 Z M 141.828125 10.023438 C 141.828125 9.402344 142.332031 8.898438 142.953125 8.898438 C 143.574219 8.898438 144.078125 9.402344 144.078125 10.023438 C 144.078125 10.644531 143.574219 11.148438 142.953125 11.148438 C 142.332031 11.148438 141.828125 10.644531 141.828125 10.023438"/></g><g clip-path="url(#b)"><path fill="#5EC9CC" d="M 139.871094 10.835938 C 140.320312 10.835938 140.683594 10.472656 140.683594 10.023438 C 140.683594 9.574219 140.320312 9.210938 139.871094 9.210938 C 139.421875 9.210938 139.058594 9.574219 139.058594 10.023438 C 139.058594 10.472656 139.421875 10.835938 139.871094 10.835938 Z M 158.277344 35.183594 L 162.066406 35.183594 L 162.066406 34.25 L 158.277344 34.25 Z M 156.808594 22.59375 L 151.644531 19.511719 L 151.644531 25.679688 Z M 169.707031 31.109375 L 138.746094 31.109375 L 138.746094 14.941406 L 169.707031 14.941406 Z M 163.714844 33.210938 L 161.078125 33.210938 L 161.078125 34.144531 L 163.714844 34.144531 Z M 158.277344 33.210938 L 158.277344 34.144531 L 160.914062 34.144531 L 160.914062 33.210938 Z M 163.714844 32.175781 L 158.277344 32.175781 L 158.277344 33.109375 L 163.714844 33.109375 Z M 76.660156 35.234375 L 73.496094 35.234375 L 73.496094 35.542969 L 76.660156 35.542969 Z M 78.308594 34.507812 L 78.308594 34.195312 L 76.292969 34.195312 L 76.292969 34.507812 Z M 75.507812 34.195312 L 73.496094 34.195312 L 73.496094 34.507812 L 75.507812 34.507812 Z M 78.308594 33.160156 L 73.496094 33.160156 L 73.496094 33.472656 L 78.308594 33.472656 Z M 56.800781 35.234375 L 53.636719 35.234375 L 53.636719 35.542969 L 56.800781 35.542969 Z M 58.449219 34.507812 L 58.449219 34.195312 L 56.4375 34.195312 L 56.4375 34.507812 Z M 55.652344 34.195312 L 53.636719 34.195312 L 53.636719 34.507812 L 55.652344 34.507812 Z M 58.449219 33.160156 L 53.636719 33.160156 L 53.636719 33.472656 L 58.449219 33.472656 Z M 79.453125 25.578125 L 73.914062 25.578125 L 73.914062 27.515625 L 79.453125 27.515625 Z M 79.453125 17.128906 L 73.914062 17.128906 L 73.914062 19.066406 L 79.453125 19.066406 Z M 52.4375 10.835938 C 52.882812 10.835938 53.25 10.472656 53.25 10.023438 C 53.25 9.574219 52.882812 9.210938 52.4375 9.210938 C 51.988281 9.210938 51.621094 9.574219 51.621094 10.023438 C 51.621094 10.472656 51.988281 10.835938 52.4375 10.835938 Z M 58.878906 22.347656 C 58.878906 24.898438 60.953125 26.976562 63.507812 26.976562 C 66.0625 26.976562 68.140625 24.898438 68.140625 22.347656 C 68.140625 19.792969 66.0625 17.714844 63.507812 17.714844 C 60.953125 17.714844 58.878906 19.792969 58.878906 22.347656 Z M 58.566406 22.347656 C 58.566406 19.621094 60.785156 17.40625 63.507812 17.40625 C 66.234375 17.40625 68.453125 19.621094 68.453125 22.347656 C 68.453125 25.070312 66.234375 27.289062 63.507812 27.289062 C 60.785156 27.289062 58.566406 25.070312 58.566406 22.347656 Z M 117.582031 50.242188 C 117.328125 50.242188 117.09375 50.445312 117.0625 50.699219 C 117.03125 50.953125 117.210938 51.160156 117.464844 51.160156 C 117.71875 51.160156 117.953125 50.953125 117.984375 50.699219 C 118.015625 50.445312 117.835938 50.242188 117.582031 50.242188 Z M 130.78125 50.390625 L 126.152344 50.390625 C 125.980469 50.390625 125.839844 50.527344 125.839844 50.699219 C 125.839844 50.871094 125.980469 51.011719 126.152344 51.011719 L 130.78125 51.011719 C 130.953125 51.011719 131.09375 50.871094 131.09375 50.699219 C 131.09375 50.527344 130.953125 50.390625 130.78125 50.390625 Z M 95.660156 11.148438 C 96.277344 11.148438 96.785156 10.644531 96.785156 10.023438 C 96.785156 9.402344 96.277344 8.898438 95.660156 8.898438 C 95.039062 8.898438 94.535156 9.402344 94.535156 10.023438 C 94.535156 10.644531 95.039062 11.148438 95.660156 11.148438 Z M 104.046875 32.0625 C 104.046875 32.554688 104.445312 32.953125 104.9375 32.953125 L 111.671875 32.953125 C 112.164062 32.953125 112.5625 32.554688 112.5625 32.0625 C 112.5625 31.570312 112.164062 31.171875 111.671875 31.171875 L 104.9375 31.171875 C 104.445312 31.171875 104.046875 31.570312 104.046875 32.0625 Z M 97.886719 27.542969 L 104.625 27.542969 C 105.113281 27.542969 105.515625 27.144531 105.515625 26.652344 C 105.515625 26.160156 105.113281 25.761719 104.625 25.761719 L 97.886719 25.761719 C 97.398438 25.761719 96.996094 26.160156 96.996094 26.652344 C 96.996094 27.144531 97.398438 27.542969 97.886719 27.542969 Z M 97.886719 22.132812 L 109.558594 22.132812 C 110.050781 22.132812 110.449219 21.730469 110.449219 21.242188 C 110.449219 20.75 110.050781 20.351562 109.558594 20.351562 L 97.886719 20.351562 C 97.398438 20.351562 96.996094 20.75 96.996094 21.242188 C 96.996094 21.730469 97.398438 22.132812 97.886719 22.132812 Z M 111.808594 27.542969 L 114.191406 27.542969 C 114.683594 27.542969 115.082031 27.144531 115.082031 26.652344 C 115.082031 26.160156 114.683594 25.761719 114.191406 25.761719 L 111.808594 25.761719 C 111.316406 25.761719 110.917969 26.160156 110.917969 26.652344 C 110.917969 27.144531 111.316406 27.542969 111.808594 27.542969 Z M 109.378906 27.542969 C 109.871094 27.542969 110.269531 27.144531 110.269531 26.652344 C 110.269531 26.160156 109.871094 25.761719 109.378906 25.761719 L 107 25.761719 C 106.507812 25.761719 106.109375 26.160156 106.109375 26.652344 C 106.109375 27.144531 106.507812 27.542969 107 27.542969 Z M 97.886719 19.425781 L 100.269531 19.425781 C 100.761719 19.425781 101.160156 19.027344 101.160156 18.535156 C 101.160156 18.046875 100.761719 17.644531 100.269531 17.644531 L 97.886719 17.644531 C 97.398438 17.644531 96.996094 18.046875 96.996094 18.535156 C 96.996094 19.027344 97.398438 19.425781 97.886719 19.425781 Z M 97.886719 16.71875 L 105.910156 16.71875 C 106.398438 16.71875 106.800781 16.324219 106.800781 15.832031 C 106.800781 15.339844 106.398438 14.941406 105.910156 14.941406 L 97.886719 14.941406 C 97.398438 14.941406 96.996094 15.339844 96.996094 15.832031 C 96.996094 16.324219 97.398438 16.71875 97.886719 16.71875 Z M 115.210938 134.296875 L 58.605469 134.296875 C 56.273438 134.296875 54.382812 136.183594 54.382812 138.515625 C 54.382812 140.84375 56.273438 142.734375 58.605469 142.734375 L 115.210938 142.734375 C 117.542969 142.734375 119.433594 140.84375 119.433594 138.515625 C 119.433594 136.183594 117.542969 134.296875 115.210938 134.296875 Z M 180.519531 46.140625 C 180.519531 45.96875 180.378906 45.832031 180.210938 45.832031 L 164.917969 45.832031 C 164.746094 45.832031 164.605469 45.96875 164.605469 46.140625 C 164.605469 46.3125 164.746094 46.453125 164.917969 46.453125 L 180.210938 46.453125 C 180.378906 46.453125 180.519531 46.3125 180.519531 46.140625 Z M 173.335938 51.011719 L 175.957031 51.011719 C 176.128906 51.011719 176.269531 50.871094 176.269531 50.699219 C 176.269531 50.527344 176.128906 50.390625 175.957031 50.390625 L 173.335938 50.390625 C 173.164062 50.390625 173.023438 50.527344 173.023438 50.699219 C 173.023438 50.871094 173.164062 51.011719 173.335938 51.011719 Z M 179.5 52.730469 C 179.5 52.558594 179.363281 52.421875 179.191406 52.421875 L 173.082031 52.421875 C 172.910156 52.421875 172.769531 52.558594 172.769531 52.730469 C 172.769531 52.902344 172.910156 53.042969 173.082031 53.042969 L 179.191406 53.042969 C 179.363281 53.042969 179.5 52.902344 179.5 52.730469 Z M 172.824219 55.074219 L 175.960938 55.074219 C 176.132812 55.074219 176.273438 54.933594 176.273438 54.765625 C 176.273438 54.589844 176.132812 54.453125 175.960938 54.453125 L 172.824219 54.453125 C 172.652344 54.453125 172.515625 54.589844 172.515625 54.765625 C 172.515625 54.933594 172.652344 55.074219 172.824219 55.074219 Z M 170.988281 68.035156 C 170.816406 68.035156 170.675781 68.175781 170.675781 68.347656 C 170.675781 68.519531 170.816406 68.65625 170.988281 68.65625 L 173.609375 68.65625 C 173.777344 68.65625 173.917969 68.519531 173.917969 68.347656 C 173.917969 68.175781 173.777344 68.035156 173.609375 68.035156 Z M 177.152344 70.378906 C 177.152344 70.207031 177.011719 70.066406 176.839844 70.066406 L 170.730469 70.066406 C 170.558594 70.066406 170.417969 70.207031 170.417969 70.378906 C 170.417969 70.550781 170.558594 70.6875 170.730469 70.6875 L 176.839844 70.6875 C 177.011719 70.6875 177.152344 70.550781 177.152344 70.378906 Z M 173.921875 72.410156 C 173.921875 72.238281 173.785156 72.097656 173.613281 72.097656 L 170.476562 72.097656 C 170.304688 72.097656 170.164062 72.238281 170.164062 72.410156 C 170.164062 72.582031 170.304688 72.71875 170.476562 72.71875 L 173.613281 72.71875 C 173.785156 72.71875 173.921875 72.582031 173.921875 72.410156 Z M 167.230469 52.964844 C 167.230469 52.792969 167.089844 52.65625 166.917969 52.65625 L 161.679688 52.65625 C 161.507812 52.65625 161.367188 52.792969 161.367188 52.964844 C 161.367188 53.136719 161.507812 53.277344 161.679688 53.277344 L 166.917969 53.277344 C 167.089844 53.277344 167.230469 53.136719 167.230469 52.964844 Z M 164.605469 57.03125 C 164.605469 56.859375 164.46875 56.71875 164.292969 56.71875 L 159.714844 56.71875 C 159.542969 56.71875 159.40625 56.859375 159.40625 57.03125 C 159.40625 57.203125 159.542969 57.339844 159.714844 57.339844 L 164.292969 57.339844 C 164.46875 57.339844 164.605469 57.203125 164.605469 57.03125 Z M 163.511719 82.546875 C 163.511719 82.375 163.371094 82.238281 163.199219 82.238281 L 154.957031 82.238281 C 154.785156 82.238281 154.644531 82.375 154.644531 82.546875 C 154.644531 82.71875 154.785156 82.859375 154.957031 82.859375 L 163.199219 82.859375 C 163.371094 82.859375 163.511719 82.71875 163.511719 82.546875 Z M 140.121094 48.433594 L 117.382812 48.433594 C 116.523438 48.433594 115.742188 49.128906 115.632812 49.988281 L 115.257812 52.964844 L 141.105469 52.964844 L 141.480469 49.988281 C 141.589844 49.128906 140.980469 48.433594 140.121094 48.433594 Z M 137.515625 71.808594 C 137.515625 71.636719 137.375 71.496094 137.203125 71.496094 L 134.429688 71.496094 C 134.257812 71.496094 134.117188 71.636719 134.117188 71.808594 C 134.117188 71.980469 134.257812 72.121094 134.429688 72.121094 L 137.203125 72.121094 C 137.375 72.121094 137.515625 71.980469 137.515625 71.808594 Z M 130.824219 73.300781 C 130.824219 73.128906 130.683594 72.992188 130.511719 72.992188 L 127.914062 72.992188 C 127.742188 72.992188 127.601562 73.128906 127.601562 73.300781 C 127.601562 73.472656 127.742188 73.613281 127.914062 73.613281 L 130.511719 73.613281 C 130.683594 73.613281 130.824219 73.472656 130.824219 73.300781 Z M 125.445312 71.808594 C 125.445312 71.636719 125.304688 71.496094 125.132812 71.496094 L 122.359375 71.496094 C 122.1875 71.496094 122.046875 71.636719 122.046875 71.808594 C 122.046875 71.980469 122.1875 72.121094 122.359375 72.121094 L 125.132812 72.121094 C 125.304688 72.121094 125.445312 71.980469 125.445312 71.808594 Z M 117.886719 83.824219 L 115.519531 83.824219 C 115.191406 83.824219 114.894531 84.089844 114.851562 84.414062 C 114.8125 84.742188 115.042969 85.003906 115.371094 85.003906 L 117.738281 85.003906 C 118.066406 85.003906 118.363281 84.742188 118.40625 84.414062 C 118.445312 84.089844 118.214844 83.824219 117.886719 83.824219 Z M 115.457031 79.777344 C 115.710938 79.777344 115.941406 79.570312 115.972656 79.316406 C 116.003906 79.0625 115.824219 78.855469 115.570312 78.855469 C 115.316406 78.855469 115.085938 79.0625 115.054688 79.316406 C 115.019531 79.570312 115.203125 79.777344 115.457031 79.777344 Z M 115.183594 73.300781 C 115.183594 73.472656 115.324219 73.613281 115.496094 73.613281 L 117.402344 73.613281 C 117.574219 73.613281 117.714844 73.472656 117.714844 73.300781 C 117.714844 73.128906 117.574219 72.992188 117.402344 72.992188 L 115.496094 72.992188 C 115.324219 72.992188 115.183594 73.128906 115.183594 73.300781 Z M 127.394531 57.03125 C 127.394531 56.859375 127.257812 56.71875 127.082031 56.71875 L 121.210938 56.71875 C 121.039062 56.71875 120.898438 56.859375 120.898438 57.03125 C 120.898438 57.203125 121.039062 57.339844 121.210938 57.339844 L 127.082031 57.339844 C 127.257812 57.339844 127.394531 57.203125 127.394531 57.03125 Z M 147.296875 90.671875 C 147.296875 90.84375 147.433594 90.984375 147.605469 90.984375 L 159.5 90.984375 C 159.671875 90.984375 159.808594 90.84375 159.808594 90.671875 C 159.808594 90.5 159.671875 90.363281 159.5 90.363281 L 147.605469 90.363281 C 147.433594 90.363281 147.296875 90.5 147.296875 90.671875 Z M 149.992188 69.21875 C 149.992188 69.390625 150.132812 69.527344 150.304688 69.527344 L 153.441406 69.527344 C 153.613281 69.527344 153.75 69.390625 153.75 69.21875 C 153.75 69.046875 153.613281 68.90625 153.441406 68.90625 L 150.304688 68.90625 C 150.132812 68.90625 149.992188 69.046875 149.992188 69.21875 Z M 151.015625 61.09375 C 151.015625 61.265625 151.152344 61.402344 151.324219 61.402344 L 155.105469 61.402344 C 155.277344 61.402344 155.417969 61.265625 155.417969 61.09375 C 155.417969 60.921875 155.277344 60.78125 155.105469 60.78125 L 151.324219 60.78125 C 151.152344 60.78125 151.015625 60.921875 151.015625 61.09375 Z M 151.78125 55 C 151.78125 55.167969 151.917969 55.308594 152.089844 55.308594 L 154.710938 55.308594 C 154.882812 55.308594 155.023438 55.167969 155.023438 55 C 155.023438 54.828125 154.882812 54.6875 154.710938 54.6875 L 152.089844 54.6875 C 151.917969 54.6875 151.78125 54.828125 151.78125 55 Z M 162.195312 61.09375 C 162.195312 60.921875 162.054688 60.78125 161.882812 60.78125 L 156.464844 60.78125 C 156.292969 60.78125 156.152344 60.921875 156.152344 61.09375 C 156.152344 61.265625 156.292969 61.402344 156.464844 61.402344 L 161.882812 61.402344 C 162.054688 61.402344 162.195312 61.265625 162.195312 61.09375 Z M 163.015625 67.496094 C 163.191406 67.496094 163.328125 67.359375 163.328125 67.1875 C 163.328125 67.015625 163.191406 66.875 163.015625 66.875 L 158.4375 66.875 C 158.265625 66.875 158.128906 67.015625 158.128906 67.1875 C 158.128906 67.359375 158.265625 67.496094 158.4375 67.496094 Z M 182.503906 47.179688 L 177.6875 90.617188 C 177.546875 91.898438 176.460938 92.867188 175.171875 92.867188 L 107.714844 92.867188 C 106.984375 92.867188 106.316406 92.570312 105.828125 92.027344 C 105.730469 91.917969 105.648438 91.800781 105.574219 91.683594 C 104.875 96.660156 101.515625 102.273438 101.515625 106.652344 C 101.515625 111.460938 105.183594 118.359375 105.183594 118.359375 C 105.183594 118.359375 103.882812 129.125 90.671875 129.125 C 85.898438 129.125 82.527344 128.289062 80.796875 127.722656 C 79.894531 127.429688 79.230469 126.671875 79.027344 125.746094 C 77.492188 118.78125 78.535156 108.886719 79.617188 105.410156 C 80.347656 103.058594 79.488281 91.015625 76.664062 82.429688 C 75.222656 78.050781 78.484375 73.542969 83.097656 73.542969 L 84.1875 70.066406 C 84.1875 70.066406 87.660156 68.386719 91.332031 69.132812 C 95.003906 69.882812 96.753906 70.890625 98.125 71.082031 L 97.234375 73.5625 C 98.75 73.695312 100.101562 74.59375 100.796875 75.96875 C 102.289062 78.933594 104.664062 84.027344 105.441406 87.859375 L 110.015625 46.621094 C 110.15625 45.335938 111.238281 44.371094 112.53125 44.371094 L 179.988281 44.371094 C 180.71875 44.371094 181.386719 44.667969 181.875 45.210938 C 182.359375 45.753906 182.585938 46.453125 182.503906 47.179688 Z M 119.320312 50.242188 C 119.070312 50.242188 118.835938 50.445312 118.804688 50.699219 C 118.773438 50.953125 118.953125 51.160156 119.207031 51.160156 C 119.460938 51.160156 119.691406 50.953125 119.722656 50.699219 C 119.757812 50.445312 119.578125 50.242188 119.320312 50.242188 Z M 121.0625 50.242188 C 120.808594 50.242188 120.578125 50.445312 120.546875 50.699219 C 120.515625 50.953125 120.695312 51.160156 120.949219 51.160156 C 121.203125 51.160156 121.433594 50.953125 121.464844 50.699219 C 121.496094 50.445312 121.316406 50.242188 121.0625 50.242188 Z M 73.398438 48.820312 L 69.695312 48.820312 L 69.695312 56.894531 L 73.398438 56.894531 Z M 60.40625 56.894531 L 64.109375 56.894531 L 64.109375 49.941406 L 60.40625 49.941406 Z M 54.820312 56.894531 L 51.117188 56.894531 L 51.117188 52.363281 L 54.820312 52.363281 L 54.820312 56.894531"/></g><g clip-path="url(#c)"><path fill="#F3D0D2" d="M 63.507812 25.339844 C 65.160156 25.339844 66.503906 24 66.503906 22.347656 C 66.503906 20.695312 65.160156 19.355469 63.507812 19.355469 C 61.855469 19.355469 60.515625 20.695312 60.515625 22.347656 C 60.515625 24 61.855469 25.339844 63.507812 25.339844 Z M 54.703125 10.023438 C 54.703125 10.472656 55.066406 10.835938 55.515625 10.835938 C 55.964844 10.835938 56.328125 10.472656 56.328125 10.023438 C 56.328125 9.574219 55.964844 9.210938 55.515625 9.210938 C 55.066406 9.210938 54.703125 9.574219 54.703125 10.023438 Z M 56.765625 17.136719 L 57.859375 18.851562 C 57.488281 19.449219 57.207031 20.117188 57.042969 20.824219 L 55.054688 21.261719 L 55.054688 23.429688 L 57.042969 23.867188 C 57.207031 24.578125 57.488281 25.242188 57.859375 25.84375 L 56.765625 27.554688 L 58.296875 29.089844 L 60.011719 27.992188 C 60.613281 28.367188 61.277344 28.644531 61.988281 28.8125 L 62.425781 30.796875 L 64.59375 30.796875 L 65.03125 28.8125 C 65.738281 28.644531 66.40625 28.367188 67.007812 27.992188 L 68.71875 29.089844 L 70.253906 27.554688 L 69.15625 25.84375 C 69.53125 25.242188 69.808594 24.578125 69.976562 23.867188 L 71.964844 23.429688 L 71.964844 21.261719 L 69.976562 20.824219 C 69.808594 20.117188 69.53125 19.449219 69.15625 18.851562 L 70.253906 17.136719 L 68.71875 15.601562 L 67.007812 16.699219 C 66.40625 16.324219 65.738281 16.046875 65.03125 15.882812 L 64.59375 13.894531 L 62.425781 13.894531 L 61.988281 15.882812 C 61.277344 16.046875 60.613281 16.324219 60.011719 16.699219 L 58.296875 15.601562 Z M 73.914062 24.28125 L 82.375 24.28125 L 82.375 22.347656 L 73.914062 22.347656 Z M 73.914062 15.832031 L 82.375 15.832031 L 82.375 13.894531 L 73.914062 13.894531 Z M 65.070312 33.160156 L 60.257812 33.160156 L 60.257812 33.472656 L 65.070312 33.472656 Z M 65.070312 34.195312 L 63.054688 34.195312 L 63.054688 34.507812 L 65.070312 34.507812 Z M 62.269531 34.507812 L 62.269531 34.195312 L 60.257812 34.195312 L 60.257812 34.507812 Z M 63.421875 35.234375 L 60.257812 35.234375 L 60.257812 35.542969 L 63.421875 35.542969 Z M 86.097656 31.328125 L 91.726562 31.328125 L 91.726562 22.75 L 86.097656 22.75 Z M 86.097656 22.4375 L 91.726562 22.4375 L 91.726562 13.859375 L 86.097656 13.859375 Z M 94.847656 32.0625 C 94.847656 32.382812 95.105469 32.640625 95.425781 32.640625 L 95.480469 32.640625 C 95.800781 32.640625 96.058594 32.382812 96.058594 32.0625 C 96.058594 31.742188 95.800781 31.484375 95.480469 31.484375 L 95.425781 31.484375 C 95.105469 31.484375 94.847656 31.742188 94.847656 32.0625 Z M 94.847656 29.359375 C 94.847656 29.675781 95.105469 29.9375 95.425781 29.9375 L 95.480469 29.9375 C 95.800781 29.9375 96.058594 29.675781 96.058594 29.359375 C 96.058594 29.039062 95.800781 28.777344 95.480469 28.777344 L 95.425781 28.777344 C 95.105469 28.777344 94.847656 29.039062 94.847656 29.359375 Z M 94.847656 26.652344 C 94.847656 26.972656 95.105469 27.230469 95.425781 27.230469 L 95.480469 27.230469 C 95.800781 27.230469 96.058594 26.972656 96.058594 26.652344 C 96.058594 26.332031 95.800781 26.074219 95.480469 26.074219 L 95.425781 26.074219 C 95.105469 26.074219 94.847656 26.332031 94.847656 26.652344 Z M 94.847656 23.945312 C 94.847656 24.265625 95.105469 24.527344 95.425781 24.527344 L 95.480469 24.527344 C 95.800781 24.527344 96.058594 24.265625 96.058594 23.945312 C 96.058594 23.628906 95.800781 23.367188 95.480469 23.367188 L 95.425781 23.367188 C 95.105469 23.367188 94.847656 23.628906 94.847656 23.945312 Z M 94.847656 21.242188 C 94.847656 21.5625 95.105469 21.820312 95.425781 21.820312 L 95.480469 21.820312 C 95.800781 21.820312 96.058594 21.5625 96.058594 21.242188 C 96.058594 20.921875 95.800781 20.664062 95.480469 20.664062 L 95.425781 20.664062 C 95.105469 20.664062 94.847656 20.921875 94.847656 21.242188 Z M 94.847656 18.535156 C 94.847656 18.855469 95.105469 19.117188 95.425781 19.117188 L 95.480469 19.117188 C 95.800781 19.117188 96.058594 18.855469 96.058594 18.535156 C 96.058594 18.21875 95.800781 17.957031 95.480469 17.957031 L 95.425781 17.957031 C 95.105469 17.957031 94.847656 18.21875 94.847656 18.535156 Z M 94.847656 15.832031 C 94.847656 16.152344 95.105469 16.410156 95.425781 16.410156 L 95.480469 16.410156 C 95.800781 16.410156 96.058594 16.152344 96.058594 15.832031 C 96.058594 15.511719 95.800781 15.253906 95.480469 15.253906 L 95.425781 15.253906 C 95.105469 15.253906 94.847656 15.511719 94.847656 15.832031 Z M 94.847656 13.125 C 94.847656 13.445312 95.105469 13.703125 95.425781 13.703125 L 95.480469 13.703125 C 95.800781 13.703125 96.058594 13.445312 96.058594 13.125 C 96.058594 12.804688 95.800781 12.546875 95.480469 12.546875 L 95.425781 12.546875 C 95.105469 12.546875 94.847656 12.804688 94.847656 13.125 Z M 94.847656 10.023438 C 94.847656 10.472656 95.210938 10.835938 95.660156 10.835938 C 96.109375 10.835938 96.472656 10.472656 96.472656 10.023438 C 96.472656 9.574219 96.109375 9.210938 95.660156 9.210938 C 95.210938 9.210938 94.847656 9.574219 94.847656 10.023438 Z M 97.308594 32.0625 C 97.308594 32.382812 97.566406 32.640625 97.886719 32.640625 L 102.800781 32.640625 C 103.117188 32.640625 103.378906 32.382812 103.378906 32.0625 C 103.378906 31.742188 103.117188 31.484375 102.800781 31.484375 L 97.886719 31.484375 C 97.566406 31.484375 97.308594 31.742188 97.308594 32.0625 Z M 97.308594 29.359375 C 97.308594 29.675781 97.566406 29.9375 97.886719 29.9375 L 108.398438 29.9375 C 108.71875 29.9375 108.976562 29.675781 108.976562 29.359375 C 108.976562 29.039062 108.71875 28.777344 108.398438 28.777344 L 97.886719 28.777344 C 97.566406 28.777344 97.308594 29.039062 97.308594 29.359375 Z M 97.308594 26.652344 C 97.308594 26.972656 97.566406 27.230469 97.886719 27.230469 L 104.625 27.230469 C 104.945312 27.230469 105.203125 26.972656 105.203125 26.652344 C 105.203125 26.332031 104.945312 26.074219 104.625 26.074219 L 97.886719 26.074219 C 97.566406 26.074219 97.308594 26.332031 97.308594 26.652344 Z M 97.308594 23.945312 C 97.308594 24.265625 97.566406 24.527344 97.886719 24.527344 L 106.78125 24.527344 C 107.101562 24.527344 107.359375 24.265625 107.359375 23.945312 C 107.359375 23.628906 107.101562 23.367188 106.78125 23.367188 L 97.886719 23.367188 C 97.566406 23.367188 97.308594 23.628906 97.308594 23.945312 Z M 97.308594 21.242188 C 97.308594 21.5625 97.566406 21.820312 97.886719 21.820312 L 109.558594 21.820312 C 109.878906 21.820312 110.136719 21.5625 110.136719 21.242188 C 110.136719 20.921875 109.878906 20.664062 109.558594 20.664062 L 97.886719 20.664062 C 97.566406 20.664062 97.308594 20.921875 97.308594 21.242188 Z M 97.308594 18.535156 C 97.308594 18.855469 97.566406 19.117188 97.886719 19.117188 L 100.269531 19.117188 C 100.589844 19.117188 100.847656 18.855469 100.847656 18.535156 C 100.847656 18.21875 100.589844 17.957031 100.269531 17.957031 L 97.886719 17.957031 C 97.566406 17.957031 97.308594 18.21875 97.308594 18.535156 Z M 97.308594 15.832031 C 97.308594 16.152344 97.566406 16.410156 97.886719 16.410156 L 105.910156 16.410156 C 106.230469 16.410156 106.488281 16.152344 106.488281 15.832031 C 106.488281 15.511719 106.230469 15.253906 105.910156 15.253906 L 97.886719 15.253906 C 97.566406 15.253906 97.308594 15.511719 97.308594 15.832031 Z M 97.308594 13.125 C 97.308594 13.445312 97.566406 13.703125 97.886719 13.703125 L 101.570312 13.703125 C 101.890625 13.703125 102.148438 13.445312 102.148438 13.125 C 102.148438 12.804688 101.890625 12.546875 101.570312 12.546875 L 97.886719 12.546875 C 97.566406 12.546875 97.308594 12.804688 97.308594 13.125 Z M 97.925781 10.023438 C 97.925781 10.472656 98.289062 10.835938 98.742188 10.835938 C 99.191406 10.835938 99.554688 10.472656 99.554688 10.023438 C 99.554688 9.574219 99.191406 9.210938 98.742188 9.210938 C 98.289062 9.210938 97.925781 9.574219 97.925781 10.023438 Z M 114.8125 17.957031 L 103.140625 17.957031 C 102.820312 17.957031 102.5625 18.21875 102.5625 18.535156 C 102.5625 18.855469 102.820312 19.117188 103.140625 19.117188 L 114.8125 19.117188 C 115.132812 19.117188 115.390625 18.855469 115.390625 18.535156 C 115.390625 18.21875 115.132812 17.957031 114.8125 17.957031 Z M 115.058594 21.242188 C 115.058594 20.921875 114.800781 20.664062 114.480469 20.664062 L 112.097656 20.664062 C 111.78125 20.664062 111.519531 20.921875 111.519531 21.242188 C 111.519531 21.5625 111.78125 21.820312 112.097656 21.820312 L 114.480469 21.820312 C 114.800781 21.820312 115.058594 21.5625 115.058594 21.242188 Z M 114.769531 26.652344 C 114.769531 26.332031 114.511719 26.074219 114.191406 26.074219 L 111.808594 26.074219 C 111.488281 26.074219 111.230469 26.332031 111.230469 26.652344 C 111.230469 26.972656 111.488281 27.230469 111.808594 27.230469 L 114.191406 27.230469 C 114.511719 27.230469 114.769531 26.972656 114.769531 26.652344 Z M 109.960938 26.652344 C 109.960938 26.332031 109.699219 26.074219 109.378906 26.074219 L 106.996094 26.074219 C 106.679688 26.074219 106.417969 26.332031 106.417969 26.652344 C 106.417969 26.972656 106.679688 27.230469 106.996094 27.230469 L 109.378906 27.230469 C 109.699219 27.230469 109.960938 26.972656 109.960938 26.652344 Z M 112.253906 32.0625 C 112.253906 31.742188 111.992188 31.484375 111.671875 31.484375 L 104.9375 31.484375 C 104.617188 31.484375 104.359375 31.742188 104.359375 32.0625 C 104.359375 32.382812 104.617188 32.640625 104.9375 32.640625 L 111.671875 32.640625 C 111.992188 32.640625 112.253906 32.382812 112.253906 32.0625 Z M 128.195312 31.328125 L 135.558594 31.328125 L 135.558594 22.75 L 128.195312 22.75 Z M 128.195312 22.4375 L 135.558594 22.4375 L 135.558594 13.859375 L 128.195312 13.859375 Z M 139.058594 30.796875 L 169.394531 30.796875 L 169.394531 15.253906 L 139.058594 15.253906 Z M 142.136719 10.023438 C 142.136719 10.472656 142.503906 10.835938 142.953125 10.835938 C 143.402344 10.835938 143.765625 10.472656 143.765625 10.023438 C 143.765625 9.574219 143.402344 9.210938 142.953125 9.210938 C 142.503906 9.210938 142.136719 9.574219 142.136719 10.023438 Z M 163.402344 32.488281 L 158.589844 32.488281 L 158.589844 32.796875 L 163.402344 32.796875 Z M 163.402344 33.523438 L 161.386719 33.523438 L 161.386719 33.832031 L 163.402344 33.832031 Z M 160.605469 33.832031 L 160.605469 33.523438 L 158.589844 33.523438 L 158.589844 33.832031 Z M 161.753906 34.558594 L 158.589844 34.558594 L 158.589844 34.871094 L 161.753906 34.871094 Z M 153.453125 32.488281 L 148.636719 32.488281 L 148.636719 32.796875 L 153.453125 32.796875 Z M 153.453125 33.523438 L 151.4375 33.523438 L 151.4375 33.832031 L 153.453125 33.832031 Z M 150.652344 33.832031 L 150.652344 33.523438 L 148.636719 33.523438 L 148.636719 33.832031 Z M 151.804688 34.558594 L 148.636719 34.558594 L 148.636719 34.871094 L 151.804688 34.871094 Z M 49.632812 37.605469 L 49.632812 8.730469 C 49.632812 7.871094 50.328125 7.175781 51.1875 7.175781 L 84.542969 7.175781 C 85.402344 7.175781 86.097656 7.871094 86.097656 8.730469 L 86.097656 13.550781 L 91.726562 13.550781 L 91.726562 8.730469 C 91.726562 7.871094 92.421875 7.175781 93.28125 7.175781 L 126.640625 7.175781 C 127.496094 7.175781 128.195312 7.871094 128.195312 8.730469 L 128.195312 13.550781 L 135.558594 13.550781 L 135.558594 8.730469 C 135.558594 7.871094 136.253906 7.175781 137.113281 7.175781 L 170.46875 7.175781 C 171.328125 7.175781 172.023438 7.871094 172.023438 8.730469 L 172.023438 31.328125 L 176.042969 31.328125 C 176.105469 31.429688 176.164062 31.535156 176.226562 31.640625 L 172.023438 31.640625 L 172.023438 37.605469 C 172.023438 38.464844 171.328125 39.160156 170.46875 39.160156 L 137.113281 39.160156 C 136.253906 39.160156 135.558594 38.464844 135.558594 37.605469 L 135.558594 31.640625 L 128.195312 31.640625 L 128.195312 34.371094 C 128.195312 35.230469 127.496094 35.925781 126.640625 35.925781 L 93.28125 35.925781 C 92.421875 35.925781 91.726562 35.230469 91.726562 34.371094 L 91.726562 31.640625 L 86.097656 31.640625 L 86.097656 37.605469 C 86.097656 38.464844 85.402344 39.160156 84.542969 39.160156 L 51.1875 39.160156 C 50.328125 39.160156 49.632812 38.464844 49.632812 37.605469 Z M 156.707031 45.832031 C 156.535156 45.832031 156.394531 45.96875 156.394531 46.140625 C 156.394531 46.3125 156.535156 46.453125 156.707031 46.453125 L 162.988281 46.453125 C 163.160156 46.453125 163.300781 46.3125 163.300781 46.140625 C 163.300781 45.96875 163.160156 45.832031 162.988281 45.832031 Z M 163.511719 82.546875 C 163.511719 82.375 163.371094 82.238281 163.199219 82.238281 L 154.957031 82.238281 C 154.785156 82.238281 154.644531 82.375 154.644531 82.546875 C 154.644531 82.71875 154.785156 82.859375 154.957031 82.859375 L 163.199219 82.859375 C 163.371094 82.859375 163.511719 82.71875 163.511719 82.546875 Z M 160.066406 88.640625 C 160.066406 88.46875 159.925781 88.332031 159.753906 88.332031 L 147.863281 88.332031 C 147.691406 88.332031 147.550781 88.46875 147.550781 88.640625 C 147.550781 88.8125 147.691406 88.953125 147.863281 88.953125 L 159.753906 88.953125 C 159.925781 88.953125 160.066406 88.8125 160.066406 88.640625 Z M 159.808594 90.671875 C 159.808594 90.5 159.671875 90.363281 159.5 90.363281 L 147.605469 90.363281 C 147.433594 90.363281 147.296875 90.5 147.296875 90.671875 C 147.296875 90.84375 147.433594 90.984375 147.605469 90.984375 L 159.5 90.984375 C 159.671875 90.984375 159.808594 90.84375 159.808594 90.671875 Z M 148.0625 84.578125 C 148.0625 84.75 148.199219 84.890625 148.371094 84.890625 L 157.984375 84.890625 C 158.15625 84.890625 158.292969 84.75 158.292969 84.578125 C 158.292969 84.40625 158.15625 84.265625 157.984375 84.265625 L 148.371094 84.265625 C 148.199219 84.265625 148.0625 84.40625 148.0625 84.578125 Z M 148.316406 82.546875 C 148.316406 82.71875 148.457031 82.859375 148.628906 82.859375 L 152.75 82.859375 C 152.921875 82.859375 153.0625 82.71875 153.0625 82.546875 C 153.0625 82.375 152.921875 82.238281 152.75 82.238281 L 148.628906 82.238281 C 148.457031 82.238281 148.316406 82.375 148.316406 82.546875 Z M 148.574219 80.515625 C 148.574219 80.6875 148.710938 80.828125 148.882812 80.828125 L 160.777344 80.828125 C 160.949219 80.828125 161.085938 80.6875 161.085938 80.515625 C 161.085938 80.34375 160.949219 80.207031 160.777344 80.207031 L 148.882812 80.207031 C 148.710938 80.207031 148.574219 80.34375 148.574219 80.515625 Z M 146.285156 80.515625 C 146.285156 80.34375 146.144531 80.207031 145.972656 80.207031 L 143.898438 80.207031 C 143.726562 80.207031 143.589844 80.34375 143.589844 80.515625 C 143.589844 80.6875 143.726562 80.828125 143.898438 80.828125 L 145.972656 80.828125 C 146.144531 80.828125 146.285156 80.6875 146.285156 80.515625 Z M 146.027344 82.546875 C 146.027344 82.375 145.890625 82.238281 145.714844 82.238281 L 143.644531 82.238281 C 143.472656 82.238281 143.332031 82.375 143.332031 82.546875 C 143.332031 82.71875 143.472656 82.859375 143.644531 82.859375 L 145.714844 82.859375 C 145.890625 82.859375 146.027344 82.71875 146.027344 82.546875 Z M 145.773438 84.578125 C 145.773438 84.40625 145.632812 84.265625 145.460938 84.265625 L 143.386719 84.265625 C 143.214844 84.265625 143.078125 84.40625 143.078125 84.578125 C 143.078125 84.75 143.214844 84.890625 143.386719 84.890625 L 145.460938 84.890625 C 145.632812 84.890625 145.773438 84.75 145.773438 84.578125 Z M 145.261719 88.640625 C 145.261719 88.46875 145.121094 88.332031 144.949219 88.332031 L 142.878906 88.332031 C 142.707031 88.332031 142.566406 88.46875 142.566406 88.640625 C 142.566406 88.8125 142.707031 88.953125 142.878906 88.953125 L 144.949219 88.953125 C 145.121094 88.953125 145.261719 88.8125 145.261719 88.640625 Z M 145.007812 90.671875 C 145.007812 90.5 144.867188 90.363281 144.695312 90.363281 L 142.621094 90.363281 C 142.449219 90.363281 142.3125 90.5 142.3125 90.671875 C 142.3125 90.84375 142.449219 90.984375 142.621094 90.984375 L 144.695312 90.984375 C 144.867188 90.984375 145.007812 90.84375 145.007812 90.671875 Z M 167.625 79.265625 L 165.914062 92.867188 L 162.179688 92.867188 C 162.210938 92.820312 162.234375 92.765625 162.234375 92.703125 C 162.234375 92.53125 162.09375 92.394531 161.921875 92.394531 L 153.679688 92.394531 C 153.507812 92.394531 153.367188 92.53125 153.367188 92.703125 C 153.367188 92.765625 153.390625 92.820312 153.421875 92.867188 L 151.730469 92.867188 C 151.761719 92.820312 151.785156 92.765625 151.785156 92.703125 C 151.785156 92.53125 151.644531 92.394531 151.472656 92.394531 L 147.351562 92.394531 C 147.179688 92.394531 147.039062 92.53125 147.039062 92.703125 C 147.039062 92.765625 147.0625 92.820312 147.09375 92.867188 L 144.695312 92.867188 C 144.730469 92.820312 144.75 92.765625 144.75 92.703125 C 144.75 92.53125 144.613281 92.394531 144.441406 92.394531 L 142.367188 92.394531 C 142.195312 92.394531 142.054688 92.53125 142.054688 92.703125 C 142.054688 92.765625 142.078125 92.820312 142.109375 92.867188 L 140.066406 92.867188 L 141.773438 79.265625 C 141.882812 78.410156 142.667969 77.710938 143.527344 77.710938 L 166.265625 77.710938 C 167.121094 77.710938 167.734375 78.410156 167.625 79.265625 Z M 123.472656 83.824219 L 121.105469 83.824219 C 120.777344 83.824219 120.480469 84.089844 120.441406 84.414062 C 120.398438 84.742188 120.628906 85.003906 120.957031 85.003906 L 123.324219 85.003906 C 123.652344 85.003906 123.949219 84.742188 123.992188 84.414062 C 124.03125 84.089844 123.800781 83.824219 123.472656 83.824219 Z M 117.886719 83.824219 L 115.519531 83.824219 C 115.191406 83.824219 114.894531 84.089844 114.851562 84.414062 C 114.8125 84.742188 115.042969 85.003906 115.371094 85.003906 L 117.738281 85.003906 C 118.066406 85.003906 118.363281 84.742188 118.40625 84.414062 C 118.445312 84.089844 118.214844 83.824219 117.886719 83.824219 Z M 113.828125 78.855469 C 113.574219 78.855469 113.34375 79.0625 113.3125 79.316406 C 113.28125 79.570312 113.460938 79.777344 113.714844 79.777344 C 113.96875 79.777344 114.199219 79.570312 114.230469 79.316406 C 114.265625 79.0625 114.082031 78.855469 113.828125 78.855469 Z M 115.457031 79.777344 C 115.710938 79.777344 115.941406 79.570312 115.972656 79.316406 C 116.003906 79.0625 115.824219 78.855469 115.570312 78.855469 C 115.316406 78.855469 115.085938 79.0625 115.054688 79.316406 C 115.019531 79.570312 115.203125 79.777344 115.457031 79.777344 Z M 117.195312 79.777344 C 117.449219 79.777344 117.683594 79.570312 117.714844 79.316406 C 117.746094 79.0625 117.566406 78.855469 117.3125 78.855469 C 117.058594 78.855469 116.828125 79.0625 116.792969 79.316406 C 116.761719 79.570312 116.941406 79.777344 117.195312 79.777344 Z M 122.039062 81.710938 L 117.40625 81.710938 C 117.234375 81.710938 117.09375 81.847656 117.09375 82.019531 C 117.09375 82.191406 117.234375 82.332031 117.40625 82.332031 L 122.039062 82.332031 C 122.214844 82.332031 122.351562 82.191406 122.351562 82.019531 C 122.351562 81.847656 122.214844 81.710938 122.039062 81.710938 Z M 126.75 77.707031 C 127.605469 77.707031 128.21875 78.40625 128.109375 79.261719 L 127.457031 84.445312 C 127.351562 85.304688 126.566406 86 125.707031 86 L 112.5 86 C 111.640625 86 111.03125 85.304688 111.140625 84.445312 L 111.792969 79.261719 C 111.898438 78.40625 112.683594 77.707031 113.542969 77.707031 Z M 119.722656 50.699219 C 119.757812 50.445312 119.578125 50.242188 119.320312 50.242188 C 119.070312 50.242188 118.835938 50.445312 118.804688 50.699219 C 118.773438 50.953125 118.953125 51.160156 119.207031 51.160156 C 119.460938 51.160156 119.691406 50.953125 119.722656 50.699219 Z M 136.144531 73.300781 C 136.144531 73.128906 136.003906 72.992188 135.832031 72.992188 L 134.242188 72.992188 C 134.070312 72.992188 133.933594 73.128906 133.933594 73.300781 C 133.933594 73.472656 134.070312 73.613281 134.242188 73.613281 L 135.832031 73.613281 C 136.003906 73.613281 136.144531 73.472656 136.144531 73.300781 Z M 133.863281 57.339844 C 134.035156 57.339844 134.175781 57.203125 134.175781 57.03125 C 134.175781 56.859375 134.035156 56.71875 133.863281 56.71875 L 129.234375 56.71875 C 129.0625 56.71875 128.921875 56.859375 128.921875 57.03125 C 128.921875 57.203125 129.0625 57.339844 129.234375 57.339844 Z M 132.960938 59.75 L 121.695312 59.75 C 121.238281 59.75 120.820312 60.125 120.765625 60.582031 L 120.421875 63.289062 C 120.367188 63.746094 120.691406 64.117188 121.148438 64.117188 L 132.414062 64.117188 C 132.871094 64.117188 133.289062 63.746094 133.347656 63.289062 L 133.6875 60.582031 C 133.746094 60.125 133.417969 59.75 132.960938 59.75 Z M 128.101562 72.121094 L 129.691406 72.121094 C 129.863281 72.121094 130 71.980469 130 71.808594 C 130 71.636719 129.863281 71.496094 129.691406 71.496094 L 128.101562 71.496094 C 127.929688 71.496094 127.789062 71.636719 127.789062 71.808594 C 127.789062 71.980469 127.929688 72.121094 128.101562 72.121094 Z M 130.824219 73.300781 C 130.824219 73.128906 130.683594 72.992188 130.511719 72.992188 L 127.914062 72.992188 C 127.742188 72.992188 127.601562 73.128906 127.601562 73.300781 C 127.601562 73.472656 127.742188 73.613281 127.914062 73.613281 L 130.511719 73.613281 C 130.683594 73.613281 130.824219 73.472656 130.824219 73.300781 Z M 125.445312 71.808594 C 125.445312 71.636719 125.304688 71.496094 125.132812 71.496094 L 122.359375 71.496094 C 122.1875 71.496094 122.046875 71.636719 122.046875 71.808594 C 122.046875 71.980469 122.1875 72.121094 122.359375 72.121094 L 125.132812 72.121094 C 125.304688 72.121094 125.445312 71.980469 125.445312 71.808594 Z M 124.070312 73.300781 C 124.070312 73.128906 123.933594 72.992188 123.761719 72.992188 L 122.171875 72.992188 C 122 72.992188 121.859375 73.128906 121.859375 73.300781 C 121.859375 73.472656 122 73.613281 122.171875 73.613281 L 123.761719 73.613281 C 123.933594 73.613281 124.070312 73.472656 124.070312 73.300781 Z M 119.171875 71.808594 C 119.171875 71.636719 119.03125 71.496094 118.859375 71.496094 L 115.683594 71.496094 C 115.511719 71.496094 115.371094 71.636719 115.371094 71.808594 C 115.371094 71.980469 115.511719 72.121094 115.683594 72.121094 L 118.859375 72.121094 C 119.03125 72.121094 119.171875 71.980469 119.171875 71.808594 Z M 117.714844 73.300781 C 117.714844 73.128906 117.574219 72.992188 117.402344 72.992188 L 115.496094 72.992188 C 115.324219 72.992188 115.183594 73.128906 115.183594 73.300781 C 115.183594 73.472656 115.324219 73.613281 115.496094 73.613281 L 117.402344 73.613281 C 117.574219 73.613281 117.714844 73.472656 117.714844 73.300781 Z M 120.898438 57.03125 C 120.898438 57.203125 121.039062 57.339844 121.210938 57.339844 L 127.082031 57.339844 C 127.257812 57.339844 127.394531 57.203125 127.394531 57.03125 C 127.394531 56.859375 127.257812 56.71875 127.082031 56.71875 L 121.210938 56.71875 C 121.039062 56.71875 120.898438 56.859375 120.898438 57.03125 Z M 134.117188 71.808594 C 134.117188 71.980469 134.257812 72.121094 134.429688 72.121094 L 137.203125 72.121094 C 137.375 72.121094 137.515625 71.980469 137.515625 71.808594 C 137.515625 71.636719 137.375 71.496094 137.203125 71.496094 L 134.429688 71.496094 C 134.257812 71.496094 134.117188 71.636719 134.117188 71.808594 Z M 136.726562 75.4375 L 113.988281 75.4375 C 113.128906 75.4375 112.519531 74.742188 112.628906 73.882812 L 115.257812 52.964844 L 141.105469 52.964844 L 141.480469 49.988281 L 138.476562 73.882812 C 138.371094 74.742188 137.585938 75.4375 136.726562 75.4375 Z M 171.546875 90.664062 L 168.410156 90.664062 C 168.238281 90.664062 168.097656 90.804688 168.097656 90.976562 C 168.097656 91.144531 168.238281 91.285156 168.410156 91.285156 L 171.546875 91.285156 C 171.71875 91.285156 171.859375 91.144531 171.859375 90.976562 C 171.859375 90.804688 171.71875 90.664062 171.546875 90.664062 Z M 173.082031 88.632812 L 168.664062 88.632812 C 168.492188 88.632812 168.355469 88.773438 168.355469 88.941406 C 168.355469 89.117188 168.492188 89.253906 168.664062 89.253906 L 173.082031 89.253906 C 173.253906 89.253906 173.390625 89.117188 173.390625 88.941406 C 173.390625 88.773438 173.253906 88.632812 173.082031 88.632812 Z M 168.921875 87.222656 L 171.542969 87.222656 C 171.710938 87.222656 171.851562 87.082031 171.851562 86.914062 C 171.851562 86.742188 171.710938 86.601562 171.542969 86.601562 L 168.921875 86.601562 C 168.75 86.601562 168.609375 86.742188 168.609375 86.914062 C 168.609375 87.082031 168.75 87.222656 168.921875 87.222656 Z M 174.601562 63.65625 L 171.464844 63.65625 C 171.292969 63.65625 171.152344 63.796875 171.152344 63.964844 C 171.152344 64.140625 171.292969 64.277344 171.464844 64.277344 L 174.601562 64.277344 C 174.773438 64.277344 174.914062 64.140625 174.914062 63.964844 C 174.914062 63.796875 174.773438 63.65625 174.601562 63.65625 Z M 176.132812 61.625 L 171.71875 61.625 C 171.546875 61.625 171.410156 61.761719 171.410156 61.9375 C 171.410156 62.105469 171.546875 62.246094 171.71875 62.246094 L 176.132812 62.246094 C 176.308594 62.246094 176.445312 62.105469 176.445312 61.9375 C 176.445312 61.761719 176.308594 61.625 176.132812 61.625 Z M 171.976562 59.59375 C 171.804688 59.59375 171.664062 59.730469 171.664062 59.902344 C 171.664062 60.074219 171.804688 60.214844 171.976562 60.214844 L 174.59375 60.214844 C 174.769531 60.214844 174.90625 60.074219 174.90625 59.902344 C 174.90625 59.730469 174.769531 59.59375 174.59375 59.59375 Z M 167.230469 52.964844 C 167.230469 52.792969 167.089844 52.65625 166.917969 52.65625 L 161.679688 52.65625 C 161.507812 52.65625 161.367188 52.792969 161.367188 52.964844 C 161.367188 53.136719 161.507812 53.277344 161.679688 53.277344 L 166.917969 53.277344 C 167.089844 53.277344 167.230469 53.136719 167.230469 52.964844 Z M 164.605469 57.03125 C 164.605469 56.859375 164.46875 56.71875 164.292969 56.71875 L 159.714844 56.71875 C 159.542969 56.71875 159.40625 56.859375 159.40625 57.03125 C 159.40625 57.203125 159.542969 57.339844 159.714844 57.339844 L 164.292969 57.339844 C 164.46875 57.339844 164.605469 57.203125 164.605469 57.03125 Z M 163.328125 67.1875 C 163.328125 67.015625 163.191406 66.875 163.015625 66.875 L 158.4375 66.875 C 158.265625 66.875 158.128906 67.015625 158.128906 67.1875 C 158.128906 67.359375 158.265625 67.496094 158.4375 67.496094 L 163.015625 67.496094 C 163.191406 67.496094 163.328125 67.359375 163.328125 67.1875 Z M 161.054688 69.21875 C 161.054688 69.046875 160.917969 68.90625 160.746094 68.90625 L 155.210938 68.90625 C 155.039062 68.90625 154.902344 69.046875 154.902344 69.21875 C 154.902344 69.390625 155.039062 69.527344 155.210938 69.527344 L 160.746094 69.527344 C 160.917969 69.527344 161.054688 69.390625 161.054688 69.21875 Z M 157.917969 71.25 C 157.917969 71.078125 157.78125 70.9375 157.609375 70.9375 L 150.046875 70.9375 C 149.875 70.9375 149.738281 71.078125 149.738281 71.25 C 149.738281 71.421875 149.875 71.558594 150.046875 71.558594 L 157.609375 71.558594 C 157.78125 71.558594 157.917969 71.421875 157.917969 71.25 Z M 149.746094 52.964844 C 149.746094 52.792969 149.609375 52.65625 149.433594 52.65625 L 147.363281 52.65625 C 147.191406 52.65625 147.050781 52.792969 147.050781 52.964844 C 147.050781 53.136719 147.191406 53.277344 147.363281 53.277344 L 149.433594 53.277344 C 149.609375 53.277344 149.746094 53.136719 149.746094 52.964844 Z M 149.492188 55 C 149.492188 54.828125 149.351562 54.6875 149.179688 54.6875 L 147.105469 54.6875 C 146.933594 54.6875 146.796875 54.828125 146.796875 55 C 146.796875 55.167969 146.933594 55.308594 147.105469 55.308594 L 149.179688 55.308594 C 149.351562 55.308594 149.492188 55.167969 149.492188 55 Z M 149.234375 57.03125 C 149.234375 56.859375 149.097656 56.71875 148.925781 56.71875 L 146.851562 56.71875 C 146.679688 56.71875 146.542969 56.859375 146.542969 57.03125 C 146.542969 57.203125 146.679688 57.339844 146.851562 57.339844 L 148.925781 57.339844 C 149.097656 57.339844 149.234375 57.203125 149.234375 57.03125 Z M 148.980469 59.0625 C 148.980469 58.890625 148.839844 58.75 148.667969 58.75 L 146.597656 58.75 C 146.425781 58.75 146.285156 58.890625 146.285156 59.0625 C 146.285156 59.230469 146.425781 59.371094 146.597656 59.371094 L 148.667969 59.371094 C 148.839844 59.371094 148.980469 59.230469 148.980469 59.0625 Z M 148.726562 61.09375 C 148.726562 60.921875 148.585938 60.78125 148.414062 60.78125 L 146.339844 60.78125 C 146.167969 60.78125 146.03125 60.921875 146.03125 61.09375 C 146.03125 61.265625 146.167969 61.402344 146.339844 61.402344 L 148.414062 61.402344 C 148.585938 61.402344 148.726562 61.265625 148.726562 61.09375 Z M 148.214844 65.15625 C 148.214844 64.984375 148.074219 64.84375 147.902344 64.84375 L 145.832031 64.84375 C 145.65625 64.84375 145.519531 64.984375 145.519531 65.15625 C 145.519531 65.328125 145.65625 65.464844 145.832031 65.464844 L 147.902344 65.464844 C 148.074219 65.464844 148.214844 65.328125 148.214844 65.15625 Z M 147.960938 67.1875 C 147.960938 67.015625 147.820312 66.875 147.648438 66.875 L 145.574219 66.875 C 145.402344 66.875 145.261719 67.015625 145.261719 67.1875 C 145.261719 67.359375 145.402344 67.496094 145.574219 67.496094 L 147.648438 67.496094 C 147.820312 67.496094 147.960938 67.359375 147.960938 67.1875 Z M 147.703125 69.21875 C 147.703125 69.046875 147.5625 68.90625 147.394531 68.90625 L 145.320312 68.90625 C 145.148438 68.90625 145.007812 69.046875 145.007812 69.21875 C 145.007812 69.390625 145.148438 69.527344 145.320312 69.527344 L 147.394531 69.527344 C 147.5625 69.527344 147.703125 69.390625 147.703125 69.21875 Z M 147.449219 71.25 C 147.449219 71.078125 147.308594 70.9375 147.136719 70.9375 L 145.0625 70.9375 C 144.894531 70.9375 144.753906 71.078125 144.753906 71.25 C 144.753906 71.421875 144.894531 71.558594 145.0625 71.558594 L 147.136719 71.558594 C 147.308594 71.558594 147.449219 71.421875 147.449219 71.25 Z M 149.992188 69.21875 C 149.992188 69.390625 150.132812 69.527344 150.304688 69.527344 L 153.441406 69.527344 C 153.613281 69.527344 153.75 69.390625 153.75 69.21875 C 153.75 69.046875 153.613281 68.90625 153.441406 68.90625 L 150.304688 68.90625 C 150.132812 68.90625 149.992188 69.046875 149.992188 69.21875 Z M 150.246094 67.1875 C 150.246094 67.359375 150.386719 67.496094 150.558594 67.496094 L 156.667969 67.496094 C 156.839844 67.496094 156.980469 67.359375 156.980469 67.1875 C 156.980469 67.015625 156.839844 66.875 156.667969 66.875 L 150.558594 66.875 C 150.386719 66.875 150.246094 67.015625 150.246094 67.1875 Z M 150.503906 65.15625 C 150.503906 65.328125 150.644531 65.464844 150.8125 65.464844 L 153.433594 65.464844 C 153.605469 65.464844 153.746094 65.328125 153.746094 65.15625 C 153.746094 64.984375 153.605469 64.84375 153.433594 64.84375 L 150.8125 64.84375 C 150.644531 64.84375 150.503906 64.984375 150.503906 65.15625 Z M 151.015625 61.09375 C 151.015625 61.265625 151.152344 61.402344 151.324219 61.402344 L 155.105469 61.402344 C 155.277344 61.402344 155.417969 61.265625 155.417969 61.09375 C 155.417969 60.921875 155.277344 60.78125 155.105469 60.78125 L 151.324219 60.78125 C 151.152344 60.78125 151.015625 60.921875 151.015625 61.09375 Z M 151.269531 59.0625 C 151.269531 59.230469 151.410156 59.371094 151.582031 59.371094 L 154.71875 59.371094 C 154.890625 59.371094 155.027344 59.230469 155.027344 59.0625 C 155.027344 58.890625 154.890625 58.75 154.71875 58.75 L 151.582031 58.75 C 151.410156 58.75 151.269531 58.890625 151.269531 59.0625 Z M 151.523438 57.03125 C 151.523438 57.203125 151.664062 57.339844 151.835938 57.339844 L 157.945312 57.339844 C 158.117188 57.339844 158.257812 57.203125 158.257812 57.03125 C 158.257812 56.859375 158.117188 56.71875 157.945312 56.71875 L 151.835938 56.71875 C 151.664062 56.71875 151.523438 56.859375 151.523438 57.03125 Z M 151.78125 55 C 151.78125 55.167969 151.917969 55.308594 152.089844 55.308594 L 154.710938 55.308594 C 154.882812 55.308594 155.023438 55.167969 155.023438 55 C 155.023438 54.828125 154.882812 54.6875 154.710938 54.6875 L 152.089844 54.6875 C 151.917969 54.6875 151.78125 54.828125 151.78125 55 Z M 152.035156 52.964844 C 152.035156 53.136719 152.175781 53.277344 152.347656 53.277344 L 159.90625 53.277344 C 160.078125 53.277344 160.21875 53.136719 160.21875 52.964844 C 160.21875 52.792969 160.078125 52.65625 159.90625 52.65625 L 152.347656 52.65625 C 152.175781 52.65625 152.035156 52.792969 152.035156 52.964844 Z M 161.355469 55.308594 C 161.527344 55.308594 161.664062 55.167969 161.664062 55 C 161.664062 54.828125 161.527344 54.6875 161.355469 54.6875 L 156.113281 54.6875 C 155.941406 54.6875 155.800781 54.828125 155.800781 55 C 155.800781 55.167969 155.941406 55.308594 156.113281 55.308594 Z M 158.878906 59.0625 C 158.878906 58.890625 158.738281 58.75 158.566406 58.75 L 156.488281 58.75 C 156.316406 58.75 156.179688 58.890625 156.179688 59.0625 C 156.179688 59.230469 156.316406 59.371094 156.488281 59.371094 L 158.566406 59.371094 C 158.738281 59.371094 158.878906 59.230469 158.878906 59.0625 Z M 160.078125 64.84375 L 154.835938 64.84375 C 154.664062 64.84375 154.527344 64.984375 154.527344 65.15625 C 154.527344 65.328125 154.664062 65.464844 154.835938 65.464844 L 160.078125 65.464844 C 160.25 65.464844 160.386719 65.328125 160.386719 65.15625 C 160.386719 64.984375 160.25 64.84375 160.078125 64.84375 Z M 161.882812 61.402344 C 162.054688 61.402344 162.195312 61.265625 162.195312 61.09375 C 162.195312 60.921875 162.054688 60.78125 161.882812 60.78125 L 156.464844 60.78125 C 156.292969 60.78125 156.152344 60.921875 156.152344 61.09375 C 156.152344 61.265625 156.292969 61.402344 156.464844 61.402344 Z M 168.300781 73.882812 C 168.191406 74.742188 167.410156 75.4375 166.550781 75.4375 L 143.8125 75.4375 C 142.953125 75.4375 142.34375 74.742188 142.453125 73.882812 L 145.457031 49.988281 C 145.5625 49.128906 146.347656 48.433594 147.207031 48.433594 L 169.945312 48.433594 C 170.804688 48.433594 171.414062 49.128906 171.304688 49.988281 Z M 87.011719 57.996094 L 86.722656 55.613281 C 86.441406 53.296875 87.125 51.109375 88.4375 49.417969 L 75.695312 49.417969 L 75.695312 57.960938 C 75.695312 57.976562 75.691406 57.984375 75.691406 57.996094 Z M 73.085938 49.132812 L 70.003906 49.132812 L 70.003906 56.582031 L 73.085938 56.582031 Z M 68.441406 49.417969 L 68.441406 48.199219 L 65.359375 48.199219 L 65.359375 56.582031 L 68.441406 56.582031 Z M 63.796875 50.25 L 60.714844 50.25 L 60.714844 56.582031 L 63.796875 56.582031 Z M 59.152344 53.992188 L 56.070312 53.992188 L 56.070312 56.582031 L 59.152344 56.582031 Z M 54.507812 52.675781 L 51.425781 52.675781 L 51.425781 56.582031 L 54.507812 56.582031 Z M 85.988281 67.199219 L 39.09375 67.199219 C 39.085938 67.09375 39.078125 66.992188 39.070312 66.886719 L 86.078125 66.886719 L 86.929688 63.882812 C 87.296875 62.589844 87.402344 61.234375 87.242188 59.898438 L 87.046875 58.308594 L 75.652344 58.308594 C 75.496094 59 74.878906 59.515625 74.140625 59.515625 L 51.1875 59.515625 C 50.445312 59.515625 49.832031 59 49.671875 58.308594 L 39.183594 58.308594 C 39.195312 58.203125 39.207031 58.101562 39.21875 57.996094 L 49.632812 57.996094 C 49.632812 57.984375 49.632812 57.976562 49.632812 57.960938 L 49.632812 49.417969 L 40.839844 49.417969 C 40.871094 49.3125 40.902344 49.210938 40.933594 49.109375 L 49.632812 49.109375 L 49.632812 45.925781 C 49.632812 45.066406 50.328125 44.371094 51.1875 44.371094 L 74.140625 44.371094 C 75 44.371094 75.695312 45.066406 75.695312 45.925781 L 75.695312 49.109375 L 88.691406 49.109375 C 90.234375 47.304688 92.523438 46.140625 95.117188 46.140625 C 97.679688 46.140625 99.992188 47.285156 101.550781 49.109375 L 109.738281 49.109375 L 109.707031 49.417969 L 101.804688 49.417969 C 102.746094 50.628906 103.367188 52.105469 103.53125 53.730469 L 103.617188 54.550781 L 105.386719 57.996094 L 108.753906 57.996094 L 108.71875 58.308594 L 105.503906 58.308594 C 105.507812 58.503906 105.386719 58.695312 105.183594 58.757812 L 104.488281 58.960938 C 104.285156 59.019531 104.152344 59.210938 104.167969 59.421875 C 104.273438 60.804688 104.585938 65.738281 103.617188 66.257812 C 102.488281 66.867188 97.105469 65.777344 97.105469 65.777344 C 97.003906 66.144531 96.921875 66.515625 96.851562 66.886719 L 107.769531 66.886719 L 107.734375 67.199219 L 96.796875 67.199219 C 96.605469 68.351562 96.558594 69.523438 96.65625 70.6875 C 95.453125 70.277344 93.839844 69.644531 91.332031 69.132812 C 88.929688 68.644531 86.613281 69.199219 85.296875 69.636719 Z M 78.9375 92.234375 C 78.554688 89.820312 78.050781 87.328125 77.417969 84.976562 L 77.421875 84.976562 C 77.410156 84.9375 77.398438 84.894531 77.386719 84.855469 C 77.160156 84.027344 76.921875 83.210938 76.664062 82.429688 C 75.800781 79.808594 76.621094 77.148438 78.40625 75.429688 C 78.316406 75.46875 78.230469 75.503906 78.144531 75.542969 C 78 75.617188 77.859375 75.695312 77.722656 75.777344 L 40.277344 75.777344 C 40.300781 75.882812 40.320312 75.984375 40.34375 76.085938 L 77.246094 76.085938 C 74.554688 78.015625 73.6875 81.714844 75.351562 84.667969 L 42.726562 84.667969 C 42.761719 84.769531 42.792969 84.875 42.828125 84.976562 L 75.523438 84.976562 Z M 108.101562 138.203125 C 109.371094 138.203125 110.644531 138.132812 111.917969 138.003906 L 103.78125 138.003906 C 105.21875 138.132812 106.660156 138.203125 108.101562 138.203125 Z M 90.671875 129.125 C 90.371094 129.125 90.078125 129.121094 89.789062 129.117188 L 78.132812 129.117188 C 78.304688 129.21875 78.476562 129.320312 78.648438 129.425781 L 134.574219 129.425781 C 134.734375 129.324219 134.894531 129.21875 135.050781 129.117188 L 91.050781 129.117188 C 90.925781 129.117188 90.804688 129.125 90.671875 129.125 Z M 78.328125 120.226562 L 66.339844 120.226562 C 66.457031 120.328125 66.570312 120.433594 66.683594 120.535156 L 78.34375 120.535156 C 78.339844 120.433594 78.332031 120.328125 78.328125 120.226562 Z M 104.601562 120.535156 L 145.988281 120.535156 C 146.101562 120.433594 146.210938 120.328125 146.324219 120.226562 L 104.710938 120.226562 C 104.675781 120.328125 104.636719 120.429688 104.601562 120.535156 Z M 78.570312 111.335938 L 57.863281 111.335938 C 57.949219 111.441406 58.039062 111.542969 58.125 111.648438 L 78.539062 111.648438 C 78.550781 111.542969 78.5625 111.4375 78.570312 111.335938 Z M 79.863281 102.445312 L 51.378906 102.445312 C 51.445312 102.550781 51.511719 102.652344 51.578125 102.757812 L 79.863281 102.757812 C 79.863281 102.65625 79.863281 102.550781 79.863281 102.445312 Z M 127.785156 106.90625 C 128.515625 107.023438 129.230469 107.136719 129.925781 107.242188 L 129.847656 107.117188 L 128 106.726562 Z M 144.042969 111.335938 L 148.722656 111.335938 L 147.242188 110.304688 L 144.59375 110.910156 Z M 108.128906 93.554688 L 167.449219 93.554688 C 167.390625 93.660156 167.328125 93.765625 167.269531 93.867188 L 108.289062 93.867188 C 110.257812 97.683594 112.066406 100.855469 113.15625 102.445312 L 161.742188 102.445312 C 161.667969 102.550781 161.59375 102.652344 161.523438 102.757812 L 113.375 102.757812 C 113.65625 103.148438 113.878906 103.40625 114.023438 103.503906 C 115.179688 104.273438 118.035156 105.046875 121.371094 105.738281 L 126.664062 103.742188 C 127.203125 103.539062 127.808594 103.609375 128.289062 103.929688 L 130.902344 105.675781 L 131.996094 107.550781 C 134.035156 107.84375 135.714844 108.066406 136.648438 108.183594 L 139.542969 108.074219 L 145.757812 105.929688 C 146.316406 105.738281 146.933594 105.824219 147.414062 106.167969 L 150.035156 108.027344 L 151.835938 111.335938 L 154.839844 111.335938 C 154.75 111.4375 154.660156 111.542969 154.574219 111.648438 L 152.003906 111.648438 L 152.066406 111.757812 C 152.179688 111.972656 152.09375 112.238281 151.875 112.335938 C 151.433594 112.308594 150.933594 112.089844 150.523438 111.785156 L 150.628906 112.5 C 150.679688 112.824219 150.410156 113.113281 150.082031 113.089844 C 149.570312 113.054688 149.144531 112.671875 149.058594 112.164062 L 148.964844 111.648438 L 143.640625 111.648438 L 142.367188 112.632812 C 141.769531 113.09375 141.070312 113.402344 140.332031 113.539062 C 139.851562 113.625 139.359375 113.613281 138.875 113.546875 L 135.933594 113.140625 L 114.058594 112.984375 C 111.417969 112.875 109.472656 112.371094 107.992188 111.648438 L 102.414062 111.648438 C 102.398438 111.597656 102.382812 111.546875 102.367188 111.496094 C 102.355469 111.453125 102.34375 111.414062 102.332031 111.371094 C 102.328125 111.359375 102.324219 111.347656 102.320312 111.335938 C 101.851562 109.75 101.515625 108.105469 101.515625 106.652344 C 101.515625 105.824219 101.640625 104.953125 101.839844 104.050781 C 101.890625 104.058594 101.941406 104.070312 101.992188 104.078125 L 98.710938 97.746094 C 98.539062 97.78125 98.363281 97.800781 98.183594 97.800781 C 96.550781 97.800781 94.941406 96.273438 93.730469 93.867188 L 46.554688 93.867188 C 46.503906 93.765625 46.453125 93.660156 46.402344 93.554688 L 93.578125 93.554688 C 92.691406 91.683594 92.039062 89.328125 91.789062 86.765625 C 91.585938 84.714844 91.671875 82.792969 91.980469 81.144531 C 91.957031 78.992188 92.539062 77.109375 94.144531 76.363281 C 94.273438 76.300781 94.402344 76.253906 94.53125 76.207031 C 94.988281 75.898438 95.492188 75.730469 96.027344 75.730469 C 96.246094 75.730469 96.464844 75.761719 96.679688 75.8125 C 98.832031 75.863281 100.75 77.238281 101.65625 79.519531 C 103.472656 84.082031 105.894531 89.214844 108.128906 93.554688 Z M 105.761719 84.976562 L 105.796875 84.667969 L 104.550781 84.667969 C 104.585938 84.769531 104.621094 84.875 104.65625 84.976562 Z M 106.78125 75.777344 L 100.691406 75.777344 C 100.726562 75.839844 100.761719 75.902344 100.796875 75.96875 C 100.816406 76.007812 100.835938 76.046875 100.855469 76.085938 L 106.75 76.085938 Z M 179.75 40.21875 L 44.609375 40.21875 C 44.554688 40.320312 44.5 40.425781 44.445312 40.527344 L 179.828125 40.527344 C 179.800781 40.425781 179.777344 40.320312 179.75 40.21875"/></g><g clip-path="url(#d)"><path fill="#393A3F" d="M 145.898438 103.40625 L 137.136719 103.429688 L 132.757812 103.445312 L 128.378906 103.488281 L 128.378906 103.628906 L 132.757812 103.671875 L 137.136719 103.6875 L 145.898438 103.714844 L 154.65625 103.683594 L 159.039062 103.664062 L 163.417969 103.621094 L 163.417969 103.5 L 159.039062 103.457031 L 154.65625 103.4375 Z M 142.222656 34.558594 L 139.058594 34.558594 L 139.058594 34.871094 L 142.222656 34.871094 Z M 143.871094 33.832031 L 143.871094 33.523438 L 141.859375 33.523438 L 141.859375 33.832031 Z M 141.074219 33.523438 L 139.058594 33.523438 L 139.058594 33.832031 L 141.074219 33.832031 Z M 143.871094 32.488281 L 139.058594 32.488281 L 139.058594 32.796875 L 143.871094 32.796875 Z M 146.035156 10.835938 C 146.484375 10.835938 146.847656 10.472656 146.847656 10.023438 C 146.847656 9.574219 146.484375 9.210938 146.035156 9.210938 C 145.582031 9.210938 145.222656 9.574219 145.222656 10.023438 C 145.222656 10.472656 145.582031 10.835938 146.035156 10.835938 Z M 101.820312 10.835938 C 102.269531 10.835938 102.636719 10.472656 102.636719 10.023438 C 102.636719 9.574219 102.269531 9.210938 101.820312 9.210938 C 101.371094 9.210938 101.007812 9.574219 101.007812 10.023438 C 101.007812 10.472656 101.371094 10.835938 101.820312 10.835938 Z M 70.042969 35.234375 L 66.875 35.234375 L 66.875 35.542969 L 70.042969 35.542969 Z M 71.691406 34.507812 L 71.691406 34.195312 L 69.675781 34.195312 L 69.675781 34.507812 Z M 68.890625 34.195312 L 66.875 34.195312 L 66.875 34.507812 L 68.890625 34.507812 Z M 71.691406 33.160156 L 66.875 33.160156 L 66.875 33.472656 L 71.691406 33.472656 Z M 58.597656 10.835938 C 59.046875 10.835938 59.410156 10.472656 59.410156 10.023438 C 59.410156 9.574219 59.046875 9.210938 58.597656 9.210938 C 58.148438 9.210938 57.785156 9.574219 57.785156 10.023438 C 57.785156 10.472656 58.148438 10.835938 58.597656 10.835938 Z M 52.8125 58.074219 L 53.121094 58.074219 L 53.121094 57.746094 L 57.457031 57.746094 L 57.457031 58.074219 L 57.765625 58.074219 L 57.765625 57.746094 L 62.101562 57.746094 L 62.101562 58.074219 L 62.410156 58.074219 L 62.410156 57.746094 L 66.746094 57.746094 L 66.746094 58.074219 L 67.054688 58.074219 L 67.054688 57.746094 L 71.390625 57.746094 L 71.390625 58.074219 L 71.699219 58.074219 L 71.699219 57.746094 L 73.117188 57.746094 L 73.117188 57.433594 L 71.699219 57.433594 L 71.699219 57.101562 L 71.390625 57.101562 L 71.390625 57.433594 L 67.054688 57.433594 L 67.054688 57.101562 L 66.746094 57.101562 L 66.746094 57.433594 L 62.410156 57.433594 L 62.410156 57.101562 L 62.101562 57.101562 L 62.101562 57.433594 L 57.765625 57.433594 L 57.765625 57.101562 L 57.457031 57.101562 L 57.457031 57.433594 L 53.121094 57.433594 L 53.121094 57.101562 L 52.8125 57.101562 L 52.8125 57.433594 L 51.425781 57.433594 L 51.425781 57.746094 L 52.8125 57.746094 Z M 153.78125 46.140625 C 153.78125 45.96875 153.640625 45.832031 153.472656 45.832031 L 113.289062 45.832031 C 113.117188 45.832031 112.980469 45.96875 112.980469 46.140625 C 112.980469 46.3125 113.117188 46.453125 113.289062 46.453125 L 153.472656 46.453125 C 153.640625 46.453125 153.78125 46.3125 153.78125 46.140625 Z M 144.695312 90.363281 L 142.621094 90.363281 C 142.449219 90.363281 142.3125 90.5 142.3125 90.671875 C 142.3125 90.84375 142.449219 90.984375 142.621094 90.984375 L 144.695312 90.984375 C 144.867188 90.984375 145.007812 90.84375 145.007812 90.671875 C 145.007812 90.5 144.867188 90.363281 144.695312 90.363281 Z M 145.261719 88.640625 C 145.261719 88.46875 145.121094 88.332031 144.949219 88.332031 L 142.878906 88.332031 C 142.707031 88.332031 142.566406 88.46875 142.566406 88.640625 C 142.566406 88.8125 142.707031 88.953125 142.878906 88.953125 L 144.949219 88.953125 C 145.121094 88.953125 145.261719 88.8125 145.261719 88.640625 Z M 145.773438 84.578125 C 145.773438 84.40625 145.632812 84.265625 145.460938 84.265625 L 143.386719 84.265625 C 143.214844 84.265625 143.078125 84.40625 143.078125 84.578125 C 143.078125 84.75 143.214844 84.890625 143.386719 84.890625 L 145.460938 84.890625 C 145.632812 84.890625 145.773438 84.75 145.773438 84.578125 Z M 146.027344 82.546875 C 146.027344 82.375 145.890625 82.238281 145.714844 82.238281 L 143.644531 82.238281 C 143.472656 82.238281 143.332031 82.375 143.332031 82.546875 C 143.332031 82.71875 143.472656 82.859375 143.644531 82.859375 L 145.714844 82.859375 C 145.890625 82.859375 146.027344 82.71875 146.027344 82.546875 Z M 146.285156 80.515625 C 146.285156 80.34375 146.144531 80.207031 145.972656 80.207031 L 143.898438 80.207031 C 143.726562 80.207031 143.589844 80.34375 143.589844 80.515625 C 143.589844 80.6875 143.726562 80.828125 143.898438 80.828125 L 145.972656 80.828125 C 146.144531 80.828125 146.285156 80.6875 146.285156 80.515625 Z M 116.792969 79.316406 C 116.761719 79.570312 116.941406 79.777344 117.195312 79.777344 C 117.449219 79.777344 117.683594 79.570312 117.714844 79.316406 C 117.746094 79.0625 117.566406 78.855469 117.3125 78.855469 C 117.058594 78.855469 116.828125 79.0625 116.792969 79.316406 Z M 120.546875 50.699219 C 120.515625 50.953125 120.695312 51.160156 120.949219 51.160156 C 121.203125 51.160156 121.433594 50.953125 121.464844 50.699219 C 121.496094 50.445312 121.316406 50.242188 121.0625 50.242188 C 120.808594 50.242188 120.578125 50.445312 120.546875 50.699219 Z M 125.148438 61.625 C 124.976562 61.625 124.839844 61.761719 124.839844 61.9375 C 124.839844 62.105469 124.976562 62.246094 125.148438 62.246094 L 128.960938 62.246094 C 129.132812 62.246094 129.273438 62.105469 129.273438 61.9375 C 129.273438 61.761719 129.132812 61.625 128.960938 61.625 Z M 147.449219 71.25 C 147.449219 71.078125 147.308594 70.9375 147.136719 70.9375 L 145.0625 70.9375 C 144.894531 70.9375 144.753906 71.078125 144.753906 71.25 C 144.753906 71.421875 144.894531 71.558594 145.0625 71.558594 L 147.136719 71.558594 C 147.308594 71.558594 147.449219 71.421875 147.449219 71.25 Z M 147.703125 69.21875 C 147.703125 69.046875 147.5625 68.90625 147.394531 68.90625 L 145.320312 68.90625 C 145.148438 68.90625 145.007812 69.046875 145.007812 69.21875 C 145.007812 69.390625 145.148438 69.527344 145.320312 69.527344 L 147.394531 69.527344 C 147.5625 69.527344 147.703125 69.390625 147.703125 69.21875 Z M 147.960938 67.1875 C 147.960938 67.015625 147.820312 66.875 147.648438 66.875 L 145.574219 66.875 C 145.402344 66.875 145.261719 67.015625 145.261719 67.1875 C 145.261719 67.359375 145.402344 67.496094 145.574219 67.496094 L 147.648438 67.496094 C 147.820312 67.496094 147.960938 67.359375 147.960938 67.1875 Z M 148.214844 65.15625 C 148.214844 64.984375 148.074219 64.84375 147.902344 64.84375 L 145.832031 64.84375 C 145.65625 64.84375 145.519531 64.984375 145.519531 65.15625 C 145.519531 65.328125 145.65625 65.464844 145.832031 65.464844 L 147.902344 65.464844 C 148.074219 65.464844 148.214844 65.328125 148.214844 65.15625 Z M 148.726562 61.09375 C 148.726562 60.921875 148.585938 60.78125 148.414062 60.78125 L 146.339844 60.78125 C 146.167969 60.78125 146.03125 60.921875 146.03125 61.09375 C 146.03125 61.265625 146.167969 61.402344 146.339844 61.402344 L 148.414062 61.402344 C 148.585938 61.402344 148.726562 61.265625 148.726562 61.09375 Z M 148.980469 59.0625 C 148.980469 58.890625 148.839844 58.75 148.667969 58.75 L 146.597656 58.75 C 146.425781 58.75 146.285156 58.890625 146.285156 59.0625 C 146.285156 59.230469 146.425781 59.371094 146.597656 59.371094 L 148.667969 59.371094 C 148.839844 59.371094 148.980469 59.230469 148.980469 59.0625 Z M 149.234375 57.03125 C 149.234375 56.859375 149.097656 56.71875 148.925781 56.71875 L 146.851562 56.71875 C 146.679688 56.71875 146.542969 56.859375 146.542969 57.03125 C 146.542969 57.203125 146.679688 57.339844 146.851562 57.339844 L 148.925781 57.339844 C 149.097656 57.339844 149.234375 57.203125 149.234375 57.03125 Z M 149.492188 55 C 149.492188 54.828125 149.351562 54.6875 149.179688 54.6875 L 147.105469 54.6875 C 146.933594 54.6875 146.796875 54.828125 146.796875 55 C 146.796875 55.167969 146.933594 55.308594 147.105469 55.308594 L 149.179688 55.308594 C 149.351562 55.308594 149.492188 55.167969 149.492188 55 Z M 149.746094 52.964844 C 149.746094 52.792969 149.609375 52.65625 149.433594 52.65625 L 147.363281 52.65625 C 147.191406 52.65625 147.050781 52.792969 147.050781 52.964844 C 147.050781 53.136719 147.191406 53.277344 147.363281 53.277344 L 149.433594 53.277344 C 149.609375 53.277344 149.746094 53.136719 149.746094 52.964844 Z M 102.09375 54.425781 L 103.554688 54.351562 C 103.628906 53.5 103.875 52.714844 104.277344 52.515625 C 103.847656 52.46875 103.429688 52.480469 103.113281 52.621094 C 103.089844 51.542969 102.664062 50.96875 102.398438 50.289062 C 102.390625 51.066406 102.605469 50.828125 102.523438 51.867188 C 102.476562 52.441406 102.59375 53.03125 102.460938 53.59375 C 102.386719 53.890625 102.25 54.160156 102.09375 54.425781 Z M 103.867188 54.335938 L 105.085938 54.277344 C 104.996094 53.34375 104.695312 52.777344 104.480469 52.777344 C 104.257812 52.777344 103.953125 53.371094 103.867188 54.335938 Z M 105.109375 54.585938 L 103.847656 54.648438 C 103.84375 54.722656 103.84375 54.796875 103.84375 54.871094 C 103.84375 56.152344 104.222656 56.96875 104.480469 56.96875 C 104.738281 56.96875 105.117188 56.152344 105.117188 54.871094 C 105.117188 54.773438 105.113281 54.679688 105.109375 54.585938 Z M 75.785156 67.082031 C 75.445312 64.859375 76.09375 62.507812 77.523438 60.773438 C 78.046875 60.136719 78.695312 59.53125 78.859375 58.722656 C 79.023438 57.890625 78.628906 57.0625 78.445312 56.234375 C 78.101562 54.648438 78.59375 52.90625 79.710938 51.734375 C 80.570312 50.835938 81.761719 50.265625 82.488281 49.253906 C 83.09375 48.410156 83.308594 47.351562 83.726562 46.398438 C 84.894531 43.722656 87.855469 41.9375 90.765625 42.15625 C 91.578125 41.148438 93.144531 40.675781 94.417969 40.898438 C 95.691406 41.125 96.824219 41.847656 97.8125 42.679688 C 100.929688 42.199219 104.847656 45.171875 105.933594 52.882812 C 105.640625 52.796875 105.234375 52.679688 104.804688 52.59375 C 105.210938 52.941406 105.429688 53.929688 105.429688 54.871094 C 105.429688 56.039062 105.09375 57.277344 104.480469 57.277344 C 103.863281 57.277344 103.53125 56.039062 103.53125 54.871094 C 103.53125 54.800781 103.535156 54.734375 103.535156 54.664062 L 102.832031 54.699219 C 102.96875 54.769531 103.066406 55.035156 103.066406 55.355469 C 103.066406 55.730469 102.929688 56.035156 102.757812 56.035156 C 102.589844 56.035156 102.449219 55.730469 102.449219 55.355469 C 102.449219 55.046875 102.546875 54.789062 102.675781 54.707031 L 101.894531 54.746094 C 101.710938 55.035156 101.523438 55.324219 101.394531 55.644531 C 100.820312 57.101562 101.636719 58.757812 101.40625 60.308594 C 101.261719 61.285156 100.71875 62.148438 100.421875 63.089844 C 100.003906 64.421875 100.296875 66.269531 100.910156 67.523438 L 96.597656 67.523438 C 96.328125 66.507812 95.980469 65.585938 95.941406 64.535156 C 95.652344 65.632812 95.527344 66.636719 95.429688 67.769531 C 94.898438 66.335938 94.550781 64.941406 94.515625 63.414062 C 94.363281 64.636719 94.308594 65.859375 94.15625 67.082031 Z M 104.949219 109.042969 C 105.425781 109.644531 105.949219 110.210938 106.523438 110.726562 C 107.09375 111.246094 107.726562 111.703125 108.425781 112.054688 C 108.773438 112.226562 109.144531 112.359375 109.527344 112.457031 C 109.917969 112.542969 110.292969 112.582031 110.671875 112.636719 C 111.429688 112.734375 112.1875 112.828125 112.945312 112.894531 C 114.464844 113.039062 115.988281 113.132812 117.515625 113.164062 C 117.554688 113.164062 117.585938 113.132812 117.589844 113.09375 C 117.589844 113.058594 117.558594 113.023438 117.519531 113.023438 C 116.761719 112.980469 116.003906 112.917969 115.246094 112.847656 C 114.488281 112.78125 113.730469 112.707031 112.976562 112.621094 C 112.21875 112.53125 111.464844 112.445312 110.710938 112.339844 C 110.335938 112.285156 109.953125 112.242188 109.597656 112.160156 C 109.242188 112.066406 108.894531 111.9375 108.558594 111.777344 C 107.21875 111.113281 106.121094 110.027344 105.152344 108.878906 C 104.664062 108.296875 104.214844 107.6875 103.792969 107.058594 C 103.363281 106.429688 102.960938 105.785156 102.601562 105.121094 L 102.597656 105.117188 C 102.582031 105.089844 102.550781 105.078125 102.519531 105.09375 C 102.492188 105.109375 102.480469 105.144531 102.492188 105.171875 C 103.171875 106.542969 103.992188 107.84375 104.949219 109.042969 Z M 94.539062 90.25 C 94.367188 90.148438 94.207031 90.027344 94.054688 89.898438 C 93.902344 89.765625 93.761719 89.613281 93.625 89.457031 C 93.605469 89.441406 93.578125 89.433594 93.554688 89.441406 C 93.523438 89.453125 93.507812 89.488281 93.519531 89.519531 C 93.683594 89.929688 94 90.277344 94.375 90.515625 C 94.5625 90.632812 94.765625 90.726562 94.972656 90.792969 C 95.148438 90.847656 95.328125 90.886719 95.507812 90.910156 C 96.109375 92.273438 96.730469 93.628906 97.355469 94.980469 C 98.070312 96.484375 98.789062 97.984375 99.527344 99.476562 C 100.265625 100.96875 101.023438 102.449219 101.8125 103.917969 C 101.828125 103.953125 101.871094 103.964844 101.902344 103.949219 C 101.9375 103.929688 101.953125 103.886719 101.9375 103.851562 C 101.570312 103.105469 101.210938 102.355469 100.851562 101.605469 L 99.777344 99.355469 L 97.636719 94.847656 C 96.921875 93.347656 96.222656 91.835938 95.535156 90.324219 C 95.191406 89.566406 94.855469 88.804688 94.527344 88.042969 C 94.203125 87.28125 93.871094 86.515625 93.628906 85.726562 L 93.628906 85.722656 C 93.621094 85.691406 93.585938 85.671875 93.554688 85.683594 C 93.523438 85.691406 93.503906 85.722656 93.515625 85.753906 C 93.976562 87.367188 94.640625 88.898438 95.296875 90.429688 C 95.332031 90.515625 95.371094 90.597656 95.410156 90.683594 C 95.296875 90.636719 95.183594 90.585938 95.074219 90.535156 C 94.890625 90.449219 94.707031 90.355469 94.539062 90.25 Z M 102.703125 60.726562 C 102.820312 60.800781 102.953125 60.851562 103.085938 60.882812 C 103.222656 60.910156 103.359375 60.921875 103.496094 60.910156 C 103.566406 60.90625 103.628906 60.890625 103.695312 60.882812 C 103.761719 60.863281 103.828125 60.84375 103.890625 60.820312 C 103.910156 60.8125 103.921875 60.792969 103.925781 60.773438 C 103.929688 60.738281 103.910156 60.707031 103.875 60.703125 C 103.617188 60.660156 103.382812 60.636719 103.15625 60.582031 C 103.042969 60.554688 102.933594 60.519531 102.824219 60.480469 C 102.714844 60.441406 102.605469 60.390625 102.503906 60.339844 L 102.488281 60.332031 C 102.46875 60.324219 102.445312 60.324219 102.421875 60.335938 C 102.386719 60.355469 102.378906 60.398438 102.398438 60.433594 C 102.476562 60.566406 102.582031 60.652344 102.703125 60.726562 Z M 167.054688 113.503906 L 161.667969 105.410156 L 161.667969 105.339844 L 157.773438 105.292969 L 153.878906 105.28125 L 146.085938 105.253906 L 138.296875 105.289062 L 134.402344 105.304688 L 130.503906 105.347656 L 130.503906 105.46875 L 130.597656 105.46875 L 130.902344 105.675781 L 131.933594 107.449219 L 130.117188 107.1875 C 130.128906 107.183594 130.140625 107.179688 130.152344 107.175781 C 130.222656 107.140625 130.28125 107.085938 130.335938 107.027344 C 130.386719 106.96875 130.429688 106.902344 130.457031 106.828125 C 130.484375 106.753906 130.503906 106.675781 130.492188 106.59375 C 130.492188 106.578125 130.484375 106.5625 130.476562 106.550781 C 130.449219 106.519531 130.398438 106.515625 130.363281 106.542969 L 130.363281 106.546875 C 130.304688 106.59375 130.261719 106.644531 130.21875 106.6875 C 130.175781 106.734375 130.140625 106.78125 130.101562 106.828125 C 130.0625 106.875 130.023438 106.917969 129.984375 106.972656 C 129.945312 107.023438 129.90625 107.074219 129.867188 107.136719 L 129.867188 107.140625 C 129.867188 107.144531 129.867188 107.144531 129.863281 107.148438 L 129.847656 107.117188 L 128.054688 106.738281 C 128.066406 106.695312 128.078125 106.652344 128.085938 106.609375 C 128.117188 106.460938 128.128906 106.308594 128.128906 106.15625 C 128.125 106.003906 128.113281 105.851562 128.078125 105.707031 C 128.046875 105.558594 128.003906 105.410156 127.933594 105.273438 C 127.921875 105.25 127.894531 105.234375 127.871094 105.234375 C 127.828125 105.234375 127.796875 105.265625 127.796875 105.308594 C 127.792969 105.453125 127.800781 105.597656 127.804688 105.738281 L 127.816406 106.164062 L 127.824219 106.585938 C 127.828125 106.679688 127.828125 106.773438 127.832031 106.863281 L 126.9375 106.734375 C 123.832031 106.269531 120.71875 105.796875 117.640625 105.191406 C 116.871094 105.039062 116.101562 104.882812 115.359375 104.664062 C 115.175781 104.605469 114.988281 104.546875 114.832031 104.464844 C 114.75 104.421875 114.734375 104.410156 114.671875 104.3125 L 114.515625 104.074219 C 114.308594 103.738281 114.105469 103.40625 113.902344 103.070312 C 113.097656 101.71875 112.3125 100.359375 111.527344 99 L 108.742188 94.167969 L 141.96875 94.167969 L 143.796875 101.164062 L 156.980469 101.164062 L 155.152344 94.167969 L 175.171875 94.167969 C 177.125 94.167969 178.765625 92.699219 178.980469 90.761719 L 183.796875 47.320312 C 184.046875 45.054688 182.273438 43.070312 179.988281 43.070312 L 112.53125 43.070312 C 110.578125 43.070312 108.9375 44.539062 108.722656 46.476562 L 104.503906 84.527344 C 104.902344 85.691406 105.230469 86.828125 105.441406 87.871094 L 110.015625 46.621094 C 110.15625 45.335938 111.238281 44.371094 112.53125 44.371094 L 179.988281 44.371094 C 180.71875 44.371094 181.386719 44.667969 181.875 45.210938 C 182.359375 45.753906 182.585938 46.453125 182.503906 47.179688 L 177.6875 90.617188 C 177.546875 91.898438 176.460938 92.867188 175.171875 92.867188 L 144.695312 92.867188 C 144.730469 92.820312 144.75 92.765625 144.75 92.703125 C 144.75 92.53125 144.613281 92.394531 144.441406 92.394531 L 142.367188 92.394531 C 142.195312 92.394531 142.054688 92.53125 142.054688 92.703125 C 142.054688 92.765625 142.078125 92.820312 142.109375 92.867188 L 107.996094 92.867188 L 106.816406 90.824219 C 106.800781 90.800781 106.765625 90.789062 106.738281 90.804688 C 106.707031 90.820312 106.699219 90.855469 106.714844 90.886719 L 107.8125 92.867188 L 107.777344 92.867188 C 108 93.308594 108.222656 93.742188 108.445312 94.167969 L 108.527344 94.167969 L 108.996094 95.011719 L 111.3125 99.121094 C 112.09375 100.484375 112.867188 101.851562 113.664062 103.210938 C 113.863281 103.550781 114.066406 103.886719 114.273438 104.226562 L 114.4375 104.476562 C 114.472656 104.523438 114.476562 104.550781 114.542969 104.613281 C 114.597656 104.671875 114.648438 104.691406 114.695312 104.722656 C 114.890625 104.820312 115.082031 104.882812 115.273438 104.945312 C 116.035156 105.175781 116.808594 105.335938 117.582031 105.496094 C 120.675781 106.089844 123.789062 106.542969 126.902344 106.988281 L 131.578125 107.632812 L 136.257812 108.207031 C 136.296875 108.210938 136.332031 108.183594 136.335938 108.144531 C 136.34375 108.105469 136.3125 108.070312 136.277344 108.066406 L 134.546875 107.820312 L 136.078125 105.519531 L 138.296875 105.53125 L 146.085938 105.5625 L 153.878906 105.535156 L 157.773438 105.523438 L 159.65625 105.5 L 164.980469 113.503906 L 163.007812 113.503906 L 160.183594 110.308594 L 158.878906 111.164062 L 161.292969 113.503906 L 153.46875 113.503906 L 160.582031 108.988281 L 150.558594 108.988281 L 152.066406 111.757812 C 152.179688 111.972656 152.09375 112.238281 151.875 112.335938 C 151.464844 112.308594 151.007812 112.117188 150.613281 111.847656 C 150.613281 111.835938 150.617188 111.828125 150.613281 111.820312 C 150.445312 111.425781 150.445312 110.988281 150.390625 110.542969 C 150.367188 110.316406 150.316406 110.085938 150.226562 109.859375 C 150.140625 109.636719 150.011719 109.433594 149.867188 109.25 C 149.5625 108.894531 149.199219 108.609375 148.832031 108.359375 C 148.464844 108.109375 148.09375 107.871094 147.765625 107.582031 C 147.742188 107.5625 147.710938 107.5625 147.6875 107.582031 C 147.664062 107.601562 147.660156 107.636719 147.679688 107.664062 C 147.964844 108.019531 148.328125 108.296875 148.675781 108.570312 C 149.023438 108.84375 149.367188 109.113281 149.625 109.445312 C 149.757812 109.609375 149.875 109.785156 149.953125 109.972656 C 150.035156 110.160156 150.074219 110.367188 150.117188 110.582031 C 150.183594 110.925781 150.222656 111.308594 150.371094 111.660156 C 150.183594 111.496094 150.015625 111.316406 149.902344 111.125 L 148.914062 109.46875 L 147.152344 109.046875 C 147.148438 109.039062 147.144531 109.035156 147.140625 109.03125 C 147.125 109.011719 147.101562 109.003906 147.074219 109.011719 C 147.070312 109.015625 147.066406 109.019531 147.0625 109.023438 L 147.039062 109.019531 L 144.5625 110.933594 C 144.5625 110.921875 144.566406 110.90625 144.566406 110.894531 C 144.582031 110.765625 144.574219 110.632812 144.554688 110.503906 C 144.53125 110.375 144.496094 110.25 144.445312 110.132812 C 144.390625 110.011719 144.328125 109.898438 144.238281 109.800781 C 144.222656 109.785156 144.195312 109.773438 144.171875 109.78125 C 144.132812 109.785156 144.105469 109.824219 144.113281 109.863281 C 144.132812 109.988281 144.160156 110.101562 144.183594 110.214844 C 144.203125 110.332031 144.230469 110.441406 144.246094 110.558594 C 144.269531 110.671875 144.285156 110.785156 144.304688 110.898438 C 144.316406 110.96875 144.328125 111.039062 144.335938 111.109375 L 142.367188 112.632812 C 141.808594 113.0625 141.160156 113.355469 140.476562 113.503906 L 138.5625 113.503906 L 136.140625 113.167969 C 136.289062 113.035156 136.421875 112.882812 136.515625 112.699219 C 136.636719 112.476562 136.691406 112.214844 136.65625 111.96875 C 136.648438 111.941406 136.625 111.914062 136.59375 111.910156 C 136.554688 111.90625 136.519531 111.933594 136.511719 111.972656 C 136.480469 112.191406 136.402344 112.386719 136.285156 112.5625 C 136.234375 112.632812 136.171875 112.699219 136.113281 112.765625 C 136.109375 112.621094 136.089844 112.480469 136.058594 112.34375 C 135.992188 112.074219 135.878906 111.820312 135.714844 111.609375 C 135.695312 111.589844 135.667969 111.578125 135.644531 111.589844 C 135.613281 111.601562 135.597656 111.636719 135.609375 111.667969 C 135.699219 111.90625 135.765625 112.144531 135.792969 112.390625 C 135.820312 112.632812 135.820312 112.878906 135.78125 113.117188 C 135.78125 113.125 135.785156 113.132812 135.785156 113.140625 L 119.078125 113.019531 L 118.347656 113.503906 L 103.042969 113.503906 C 103.082031 113.609375 103.121094 113.710938 103.160156 113.816406 L 183.820312 113.816406 L 183.820312 113.503906 Z M 56.902344 113.503906 L 56.902344 113.816406 L 91.679688 113.816406 C 93.785156 113.816406 94.390625 113.503906 94.390625 113.503906 C 94.667969 113.429688 94.929688 113.328125 95.179688 113.207031 C 96.964844 112.335938 98.039062 110.304688 97.527344 108.210938 L 91.578125 83.730469 C 91.097656 81.753906 89.328125 80.363281 87.292969 80.363281 L 54.042969 80.363281 C 51.1875 80.363281 49.082031 83.035156 49.757812 85.8125 L 55.710938 110.292969 C 56.09375 111.882812 57.316406 113.089844 58.839844 113.503906 Z M 105.183594 118.359375 C 105.183594 118.359375 105.175781 118.414062 105.160156 118.515625 C 104.941406 119.8125 102.960938 129.125 90.671875 129.125 C 86.175781 129.125 82.921875 128.382812 81.113281 127.820312 C 81.753906 131.5 84.960938 134.296875 88.824219 134.296875 L 112.464844 134.296875 C 118.316406 134.296875 124.027344 131.859375 124.027344 131.859375 L 122.191406 142.734375 L 134.246094 142.734375 C 134.246094 142.734375 135.640625 131.859375 136.242188 124.5625 C 136.59375 120.289062 133.445312 118.917969 130.773438 118.515625 L 152.457031 118.515625 L 151.046875 130.632812 L 155.503906 131.371094 L 157 118.515625 L 173.046875 118.515625 L 174.910156 134.585938 L 179.542969 135.351562 L 177.585938 118.515625 L 183.820312 118.515625 L 183.820312 118.203125 L 105.101562 118.203125 C 105.152344 118.300781 105.183594 118.359375 105.183594 118.359375 Z M 78.261719 118.203125 L 56.902344 118.203125 L 56.902344 118.515625 L 67.175781 118.515625 C 67.167969 118.558594 67.171875 118.609375 67.15625 118.65625 L 67.117188 118.96875 C 67.085938 119.175781 67.074219 119.386719 67.054688 119.597656 L 67.019531 120.230469 L 67 120.546875 L 66.992188 120.707031 C 66.996094 120.757812 66.957031 120.808594 67.058594 120.871094 C 67.171875 120.832031 67.144531 120.777344 67.160156 120.726562 L 67.191406 120.570312 L 67.355469 119.632812 C 67.382812 119.421875 67.421875 119.214844 67.441406 119.003906 L 67.472656 118.691406 C 67.46875 118.632812 67.492188 118.574219 67.484375 118.515625 L 78.265625 118.515625 C 78.261719 118.410156 78.261719 118.308594 78.261719 118.203125 Z M 131.09375 50.699219 C 131.09375 50.527344 130.953125 50.390625 130.78125 50.390625 L 126.152344 50.390625 C 125.980469 50.390625 125.839844 50.527344 125.839844 50.699219 C 125.839844 50.871094 125.980469 51.011719 126.152344 51.011719 L 130.78125 51.011719 C 130.953125 51.011719 131.09375 50.871094 131.09375 50.699219 Z M 118.804688 50.699219 C 118.773438 50.953125 118.953125 51.160156 119.207031 51.160156 C 119.460938 51.160156 119.691406 50.953125 119.722656 50.699219 C 119.757812 50.445312 119.578125 50.242188 119.320312 50.242188 C 119.070312 50.242188 118.835938 50.445312 118.804688 50.699219 Z M 117.464844 51.160156 C 117.210938 51.160156 117.03125 50.953125 117.0625 50.699219 C 117.09375 50.445312 117.328125 50.242188 117.582031 50.242188 C 117.835938 50.242188 118.015625 50.445312 117.984375 50.699219 C 117.953125 50.953125 117.71875 51.160156 117.464844 51.160156"/></g><g clip-path="url(#e)"><path fill="#777B85" d="M 161.019531 101.164062 L 158.515625 101.164062 L 156.6875 94.167969 L 155.152344 94.167969 L 156.980469 101.164062 L 130.773438 101.164062 C 129.449219 101.164062 128.378906 102.238281 128.378906 103.558594 L 163.417969 103.558594 C 163.417969 102.238281 162.34375 101.164062 161.019531 101.164062 Z M 76.265625 101 L 71.101562 101 C 70.769531 101 70.492188 101.246094 70.453125 101.574219 L 66.273438 137.789062 C 66.230469 138.175781 66.53125 138.515625 66.921875 138.515625 L 72.085938 138.515625 C 72.417969 138.515625 72.695312 138.265625 72.734375 137.9375 L 76.914062 101.726562 C 76.957031 101.339844 76.65625 101 76.265625 101 Z M 153.234375 113.652344 L 155.328125 113.652344 L 160.097656 110.515625 L 162.871094 113.652344 L 164.417969 113.652344 L 160.582031 108.988281 Z M 182.042969 43.070312 L 179.988281 43.070312 C 182.273438 43.070312 184.046875 45.054688 183.796875 47.320312 L 178.980469 90.761719 C 178.765625 92.699219 177.125 94.167969 175.171875 94.167969 L 177.222656 94.167969 C 179.175781 94.167969 180.816406 92.699219 181.03125 90.761719 L 185.851562 47.320312 C 186.101562 45.054688 184.324219 43.070312 182.042969 43.070312 Z M 131.09375 50.699219 C 131.09375 50.527344 130.953125 50.390625 130.78125 50.390625 L 126.152344 50.390625 C 125.980469 50.390625 125.839844 50.527344 125.839844 50.699219 C 125.839844 50.871094 125.980469 51.011719 126.152344 51.011719 L 130.78125 51.011719 C 130.953125 51.011719 131.09375 50.871094 131.09375 50.699219 Z M 119.320312 50.242188 C 119.070312 50.242188 118.835938 50.445312 118.804688 50.699219 C 118.773438 50.953125 118.953125 51.160156 119.207031 51.160156 C 119.460938 51.160156 119.691406 50.953125 119.722656 50.699219 C 119.757812 50.445312 119.578125 50.242188 119.320312 50.242188 Z M 117.582031 50.242188 C 117.328125 50.242188 117.09375 50.445312 117.0625 50.699219 C 117.03125 50.953125 117.210938 51.160156 117.464844 51.160156 C 117.71875 51.160156 117.953125 50.953125 117.984375 50.699219 C 118.015625 50.445312 117.835938 50.242188 117.582031 50.242188 Z M 121.464844 50.699219 C 121.433594 50.953125 121.203125 51.160156 120.949219 51.160156 C 120.695312 51.160156 120.515625 50.953125 120.546875 50.699219 C 120.578125 50.445312 120.808594 50.242188 121.0625 50.242188 C 121.316406 50.242188 121.496094 50.445312 121.464844 50.699219"/></g></svg>